<svg id="Ebene_1" data-name="Ebene 1" xmlns="http://www.w3.org/2000/svg" viewBox="0 0 595.28 841.89"><defs><style>.cls-1{fill:#010101;}.cls-2{fill:#fff;}.cls-3{fill:#1d1d1b;stroke:#000;stroke-miterlimit:10;stroke-width:0.28px;}.cls-4{fill:#f5be46;}.cls-5{fill:#cc2a1d;}</style></defs><title>Zeichenfläche 3</title><circle class="cls-1" cx="297.8" cy="298.04" r="6.79"/><path class="cls-1" d="M283.49,316.7v0a6.45,6.45,0,0,1,5.36-6.37l4-.69,4.83,7.4,4.82-7.4,4,.69a6.46,6.46,0,0,1,5.37,6.37v0S298.92,329.56,283.49,316.7Z"/><polygon points="300.95 431.2 283.24 448.8 290.65 456.29 308.39 438.74 300.95 431.2"/><polyline points="281.23 450.85 288.57 458.25 281.14 458.54"/><path d="M303.38,428.18H314a0,0,0,0,1,0,0v4.93a.68.68,0,0,1-.68.68h-9.23a.68.68,0,0,1-.68-.68v-4.93A0,0,0,0,1,303.38,428.18Z" transform="translate(224.46 954.38) rotate(-135.25)"/><rect class="cls-1" x="220.76" y="490.61" width="153.76" height="31.16" rx="6.46"/><path class="cls-2" d="M283.69,509.47h3.6v1.47H282v-8.57h1.73Z"/><path class="cls-2" d="M290.9,511.05c-1.92,0-3.28-1.17-3.28-3.79v-1.21c0-2.65,1.36-3.79,3.28-3.79s3.29,1.14,3.29,3.79v1.21C294.19,509.88,292.84,511.05,290.9,511.05Zm-1.54-3.79c0,1.64.54,2.33,1.54,2.33s1.55-.69,1.55-2.33v-1.21c0-1.64-.54-2.32-1.55-2.32s-1.54.68-1.54,2.32Z"/><path class="cls-2" d="M301.78,506.48v.78c0,2.62-1.21,3.79-3.15,3.79s-3.28-1.17-3.28-3.79v-1.09c0-2.77,1.36-3.91,3.28-3.91a2.94,2.94,0,0,1,3.14,2.77h-1.66a1.42,1.42,0,0,0-1.48-1.3c-1,0-1.54.68-1.54,2.32v1.21c0,1.64.53,2.33,1.54,2.33S300,509,300.11,508h-1.44v-1.47Z"/><path class="cls-2" d="M305.07,510.94h-1.74v-8.57h1.74Z"/><path class="cls-2" d="M313.32,502.37v8.57h-1.45l-3.34-5.3v5.3h-1.65v-8.57h1.44l3.35,5.38v-5.38Z"/><rect class="cls-1" x="220.76" y="355.06" width="153.76" height="31.16" rx="6.46"/><path class="cls-2" d="M280.22,369.86a1.76,1.76,0,0,0-1.69-.87c-.79,0-1.21.36-1.21.95s.55,1,1.69,1.25c1.79.45,2.59,1.12,2.59,2.63s-.94,2.5-3,2.5a3.76,3.76,0,0,1-3.3-1.41l1.33-.91a2.14,2.14,0,0,0,1.86.85c1,0,1.33-.43,1.33-1s-.36-.93-1.75-1.29c-1.69-.45-2.53-1.26-2.53-2.67s.89-2.41,2.92-2.41a3.34,3.34,0,0,1,3,1.4Z"/><path class="cls-2" d="M284.75,376.21H283v-8.57h1.73Z"/><path class="cls-2" d="M292.73,371.75v.78c0,2.62-1.21,3.79-3.15,3.79s-3.28-1.17-3.28-3.79v-1.09c0-2.77,1.36-3.91,3.28-3.91a2.94,2.94,0,0,1,3.14,2.77h-1.66a1.43,1.43,0,0,0-1.48-1.31c-1,0-1.54.69-1.54,2.33v1.21c0,1.64.53,2.32,1.54,2.32s1.38-.61,1.48-1.64h-1.44v-1.46Z"/><path class="cls-2" d="M300.6,367.64v8.57h-1.45l-3.34-5.3v5.3h-1.65v-8.57h1.44L299,373v-5.38Z"/><path class="cls-2" d="M312,367.64v5.09c0,2.53-1.39,3.59-3.29,3.59s-3.28-1.06-3.28-3.58v-5.1h1.73v5.1c0,1.47.49,2.11,1.55,2.11s1.56-.64,1.56-2.11v-5.1Z"/><path class="cls-2" d="M315.4,373.19v3h-1.74v-8.57h3.06c2,0,3.21.91,3.21,2.74s-1.22,2.81-3.21,2.81Zm1.08-1.47c1.2,0,1.71-.42,1.71-1.34s-.51-1.26-1.71-1.26H315.4v2.6Z"/><path class="cls-3" d="M242.66,220.26V203.93h6.09c3.71,0,6.43,1.83,6.43,7v2.37c0,5.11-2.72,7-6.43,7Zm8.59-7v-2.37c0-2.2-.47-3.71-2.5-3.71h-2.16V217h2.16C250.78,217,251.25,215.48,251.25,213.28Z"/><path class="cls-3" d="M255.3,220.26,261,203.93h3.78l5.68,16.33h-4.19l-.87-2.79h-5l-.85,2.79Zm6.06-6.06h3l-1.49-4.82Z"/><path class="cls-3" d="M280.31,220.26l-2.72-6.18h-2v6.18h-3.93V203.93h6.16c3.76,0,6.17,1.73,6.17,5.14a4.4,4.4,0,0,1-2.6,4.33l3.26,6.86Zm-3-9.44c1.59,0,2.72-.21,2.72-1.75s-1.13-1.87-2.72-1.87h-1.75v3.62Z"/><path class="cls-3" d="M297.41,203.93v3.27h-4.26v13.06h-3.92V207.2H285v-3.27Z"/><path class="cls-3" d="M307.56,208.45a2.9,2.9,0,0,0-2.91-1.49c-1.3,0-1.87.59-1.87,1.42s.86,1.52,2.91,2.11c3.55,1,4.9,2.34,4.9,5.13,0,3-2,4.88-5.7,4.88-3,0-5-.74-6.53-2.68l2.93-2.06a3.79,3.79,0,0,0,3.27,1.47c1.51,0,2.1-.64,2.1-1.42,0-.94-.66-1.42-3.07-2.2-3.31-1.06-4.73-2.58-4.73-5.2s1.77-4.71,5.75-4.71c2.6,0,4.7.87,5.86,2.67Z"/><path class="cls-3" d="M324.81,211.62v1.75c0,4.88-2.29,7.13-6,7.13s-6.43-2.25-6.43-7.13v-2.22c0-5.25,2.72-7.45,6.43-7.45,3.55,0,5.54,2.08,6,5.27h-3.74a2.22,2.22,0,0,0-2.27-2c-1.63,0-2.51,1.19-2.51,3.86v2.55c0,2.68.88,3.86,2.51,3.86s2.11-1,2.25-2.34h-2.18v-3.27Z"/><path class="cls-3" d="M337.61,203.93v3.27h-6.39v3h5.68v3.27h-5.68V217h6.39v3.27H327.29V203.93Z"/><path class="cls-3" d="M348.31,220.26l-2.73-6.18h-2v6.18h-3.93V203.93h6.15c3.77,0,6.18,1.73,6.18,5.14a4.4,4.4,0,0,1-2.6,4.33l3.26,6.86Zm-3-9.44c1.58,0,2.72-.21,2.72-1.75s-1.14-1.87-2.72-1.87h-1.75v3.62Z"/><path class="cls-4" d="M342.12,132.75l-38.25,34.88,0-75.34L334.1,71.42a6.46,6.46,0,0,1,10.13,5.31V128A6.47,6.47,0,0,1,342.12,132.75Z"/><path d="M253.15,132.75l38.26,34.88,0-75.34L261.17,71.42a6.45,6.45,0,0,0-10.12,5.32V128A6.46,6.46,0,0,0,253.15,132.75Z"/><rect class="cls-5" x="291.42" y="92.28" width="12.43" height="75.36"/><path class="cls-5" d="M303.85,167.63l-1.84,1.7a6.46,6.46,0,0,1-8.74,0l-1.85-1.7"/></svg>