<svg id="Ebene_1" data-name="Ebene 1" xmlns="http://www.w3.org/2000/svg" viewBox="0 0 595.28 841.89"><defs><style>.cls-1{fill:#f5be46;}.cls-2{fill:#1d1d1b;}.cls-3,.cls-5{fill:#fff;}.cls-4{fill:#010101;}.cls-5{stroke:#fff;stroke-miterlimit:10;stroke-width:0.23px;}</style></defs><title>Zeichenfläche 6</title><path class="cls-1" d="M195.35,467.08l-18.93,15.78a5.09,5.09,0,0,0,0,7.83l18.93,15.78"/><rect class="cls-2" x="253.16" y="462.49" width="90.12" height="48.57" rx="6.29"/><path class="cls-1" d="M400.22,467.08l18.94,15.78a5.09,5.09,0,0,1,0,7.83l-18.94,15.78"/><path class="cls-3" d="M298.22,500.56c-4.48,0-8.46-2.64-8.46-8.21V481.24c0-5.72,4-8.26,8.46-8.26s8.45,2.54,8.45,8.22v11.15C306.67,497.92,302.7,500.56,298.22,500.56Zm0-23.64c-2.46,0-4,1.67-4,4.56v10.59c0,2.89,1.52,4.56,4,4.56s3.93-1.67,3.93-4.56V481.48C302.15,478.59,300.63,476.92,298.22,476.92Z"/><path class="cls-1" d="M175,765.28l6.11,5.9a2.23,2.23,0,0,0,3.13,0L200.51,755a2.24,2.24,0,0,1,3.16,0l3.17,3.18a2.26,2.26,0,0,1,0,3.16L184.27,784a2.23,2.23,0,0,1-3.16,0l-12.49-12.48a2.23,2.23,0,0,1,0-3.2l3.25-3.1A2.23,2.23,0,0,1,175,765.28Z"/><rect class="cls-2" x="164.63" y="558.65" width="44.73" height="39.4" rx="5.1"/><path class="cls-3" d="M189.81,587.38h-3V572.59l-2.59,1.78V571.3l2.78-2h2.85Z"/><rect class="cls-2" x="386.05" y="558.64" width="44.73" height="39.4" rx="5.1"/><path class="cls-3" d="M406.68,576.75h1.26c1.89,0,2.91-1,2.91-2.7a2.4,2.4,0,0,0-2.57-2.38,2.45,2.45,0,0,0-2.56,2.22h-2.78c.08-2.9,2.54-4.81,5.45-4.81,3.16,0,5.47,2.17,5.47,4.89a4.4,4.4,0,0,1-2.57,4,4.53,4.53,0,0,1,2.83,4.38,5.15,5.15,0,0,1-5.52,5.23c-3.67,0-5.74-2.09-5.89-5h2.77a2.69,2.69,0,0,0,3,2.31,2.56,2.56,0,0,0,2.65-2.67c0-1.83-1.07-2.93-3.17-2.93h-1.26Z"/><rect class="cls-2" x="164.63" y="621.97" width="44.73" height="39.4" rx="5.1"/><path class="cls-3" d="M190.16,632.64l-5.78,12.7h4.24v-4.92h3v4.92h1.65V648h-1.65v2.72h-3V648h-7.93v-2.14l6.25-13.2Z"/><rect class="cls-2" x="386.05" y="621.97" width="44.73" height="39.4" rx="5.1"/><path class="cls-3" d="M407.51,640.19a3.94,3.94,0,0,1,1.73-.34c2.82,0,4.87,2.28,4.87,5.34,0,3.64-2.44,5.63-5.68,5.63s-5.71-2-5.71-5.57a12.72,12.72,0,0,1,1.46-4.74l3.7-8h3.29Zm.92,8a2.92,2.92,0,1,0-2.67-2.91A2.59,2.59,0,0,0,408.43,648.18Z"/><rect class="cls-2" x="164.63" y="685.25" width="44.73" height="39.4" rx="5.1"/><path class="cls-3" d="M181.68,701.52v-5.6h10.63v2.33L186.89,714h-3.17l5.45-15.43H184.3v3Z"/><rect class="cls-2" x="386.05" y="685.25" width="44.73" height="39.4" rx="5.11"/><path class="cls-3" d="M409.32,706.43a3.63,3.63,0,0,1-1.73.37c-2.83,0-4.87-2.28-4.87-5.37a5.3,5.3,0,0,1,5.68-5.63c3.25,0,5.71,2,5.71,5.58a12.81,12.81,0,0,1-1.47,4.74l-3.67,8h-3.29Zm-.92-8a2.92,2.92,0,1,0,2.67,2.9A2.59,2.59,0,0,0,408.4,698.45Z"/><rect class="cls-2" x="275.32" y="558.65" width="44.73" height="39.4" rx="5.09"/><path class="cls-3" d="M303.08,587.5H292.16v-2.15l6.21-7.28a6,6,0,0,0,1.83-3.8,2.57,2.57,0,0,0-5.13,0h-2.78c0-3.06,2.46-5.08,5.45-5.08a5.15,5.15,0,0,1,5.47,5.14c0,2.27-1.57,4-2.72,5.44l-4.27,5.11h6.86Z"/><rect class="cls-2" x="275.32" y="621.97" width="44.73" height="39.4" rx="5.1"/><path class="cls-3" d="M295.5,642.32l-2.75-.06.21-9.79,9.79.21-.06,2.86-6.83-.15-.08,3.82a3.68,3.68,0,0,1,2.79-1c3,.07,4.72,2.43,4.63,6.62-.09,4-2,6.11-5.63,6a5.18,5.18,0,0,1-5.4-4.83l3,.07a2.42,2.42,0,0,0,2.42,2.12c1.54,0,2.54-1,2.59-3.35s-.65-3.81-2.43-3.85A2.44,2.44,0,0,0,295.5,642.32Z"/><rect class="cls-2" x="275.32" y="685.25" width="44.73" height="39.4" rx="5.09"/><path class="cls-3" d="M294.57,704.61a4.48,4.48,0,0,1-2.46-4c0-3.12,2.67-5,5.57-5s5.58,1.86,5.58,5a4.48,4.48,0,0,1-2.46,4,4.71,4.71,0,0,1,2.72,4.32c0,3.3-2.72,5.29-5.84,5.29s-5.83-2-5.83-5.29A4.82,4.82,0,0,1,294.57,704.61Zm3.11,7a2.84,2.84,0,0,0,0-5.68,2.84,2.84,0,0,0,0,5.68Zm0-8.14a2.57,2.57,0,0,0,2.57-2.59,2.57,2.57,0,1,0-2.57,2.59Z"/><rect class="cls-2" x="275.32" y="748.72" width="44.73" height="39.4" rx="5.11"/><path class="cls-3" d="M297.68,777.68c-3,0-5.68-1.78-5.68-5.52V764.7c0-3.85,2.67-5.55,5.68-5.55s5.69,1.7,5.69,5.52v7.49C303.37,775.9,300.7,777.68,297.68,777.68Zm0-15.89c-1.64,0-2.67,1.13-2.67,3.07V772c0,1.93,1,3.06,2.67,3.06s2.65-1.13,2.65-3.06v-7.12C300.33,762.92,299.31,761.79,297.68,761.79Z"/><path class="cls-1" d="M399,748.72l18.94,15.78a5.1,5.1,0,0,1,0,7.83L399,788.11"/><rect class="cls-2" x="164.54" y="210.36" width="90.12" height="48.57" rx="6.3"/><path class="cls-3" d="M209.6,245.28c-4.48,0-8.45-2.65-8.45-8.22V226c0-5.73,4-8.26,8.45-8.26s8.45,2.53,8.45,8.22v11.14C218.05,242.63,214.08,245.28,209.6,245.28Zm0-23.65c-2.46,0-4,1.68-4,4.56v10.6c0,2.88,1.51,4.56,4,4.56s3.93-1.68,3.93-4.56v-10.6C213.53,223.31,212,221.63,209.6,221.63Z"/><path class="cls-3" d="M385.68,248.44c-4.48,0-8.46-2.65-8.46-8.22V229.11c0-5.72,4-8.26,8.46-8.26s8.45,2.54,8.45,8.22v11.15C394.13,245.79,390.16,248.44,385.68,248.44Zm0-23.65c-2.46,0-4,1.67-4,4.56v10.59c0,2.89,1.52,4.56,4,4.56s3.93-1.67,3.93-4.56V229.35C389.61,226.46,388.09,224.79,385.68,224.79Z"/><rect class="cls-2" x="340.61" y="210.36" width="90.12" height="48.57" rx="6.28"/><path class="cls-3" d="M385.68,248.44c-4.48,0-8.46-2.65-8.46-8.22V229.11c0-5.72,4-8.26,8.46-8.26s8.45,2.54,8.45,8.22v11.15C394.13,245.79,390.16,248.44,385.68,248.44Zm0-23.65c-2.46,0-4,1.67-4,4.56v10.59c0,2.89,1.52,4.56,4,4.56s3.93-1.67,3.93-4.56V229.35C389.61,226.46,388.09,224.79,385.68,224.79Z"/><circle class="cls-4" cx="210.34" cy="125.45" r="7.9"/><path class="cls-4" d="M193.67,147.17V145.1a5.1,5.1,0,0,1,4.24-5l6.62-1.14,5.62,8.61,5.62-8.61,6.62,1.14a5.1,5.1,0,0,1,4.24,5v2.07S211.65,162.15,193.67,147.17Z"/><circle class="cls-2" cx="386.43" cy="125.45" r="7.9"/><path class="cls-2" d="M369.77,147.17V145.1a5.1,5.1,0,0,1,4.23-5l6.63-1.14,5.62,8.61,5.61-8.61,6.63,1.14a5.09,5.09,0,0,1,4.23,5v2.07S387.74,162.15,369.77,147.17Z"/><path class="cls-2" d="M188.51,173.83a1.81,1.81,0,0,0,1.48.79c1.06,0,1.63-.57,1.63-2.46v-6.71h2.21v6.71c0,3.14-1.41,4.32-3.7,4.32a3.94,3.94,0,0,1-3.45-1.63Z"/><path class="cls-2" d="M199.81,176.48c-2.45,0-4.17-1.48-4.17-4.81v-1.55c0-3.36,1.72-4.81,4.17-4.81s4.18,1.45,4.18,4.81v1.55C204,175,202.27,176.48,199.81,176.48Zm-2-4.81c0,2.08.68,3,2,3s2-.87,2-3v-1.55c0-2.08-.69-3-2-3s-2,.87-2,3Z"/><path class="cls-2" d="M214,165.45v10.89h-1.84l-4.25-6.74v6.74h-2.1V165.45h1.83l4.27,6.83v-6.83Z"/><path class="cls-2" d="M215,176.34l3.79-10.89h2.11l3.79,10.89h-2.35l-.66-2.07h-3.65l-.66,2.07Zm3.61-3.93h2.47l-1.24-3.84Z"/><path class="cls-2" d="M231.4,168.27a2.22,2.22,0,0,0-2.15-1.1c-1,0-1.53.46-1.53,1.2s.7,1.23,2.15,1.59c2.27.57,3.3,1.42,3.3,3.35,0,1.78-1.2,3.17-3.76,3.17a4.81,4.81,0,0,1-4.2-1.78l1.69-1.17a2.72,2.72,0,0,0,2.37,1.09c1.26,0,1.69-.55,1.69-1.22s-.46-1.18-2.23-1.64c-2.14-.57-3.22-1.59-3.22-3.39s1.14-3.06,3.73-3.06a4.24,4.24,0,0,1,3.82,1.78Z"/><path class="cls-2" d="M364.5,176.34V165.45h3.87c2.46,0,4.18,1.26,4.18,4.73v1.42c0,3.46-1.72,4.74-4.18,4.74Zm5.84-4.74v-1.42c0-1.87-.5-2.85-2-2.85h-1.66v7.15h1.66C369.84,174.48,370.34,173.48,370.34,171.6Z"/><path class="cls-2" d="M372.91,176.34l3.79-10.89h2.11l3.79,10.89h-2.35l-.66-2.07h-3.65l-.66,2.07Zm3.62-3.93H379l-1.23-3.84Z"/><path class="cls-2" d="M384.32,165.45l2.38,7.32,2.39-7.32h2.41l-3.79,10.89h-2l-3.8-10.89Z"/><path class="cls-2" d="M395,176.34h-2.21V165.45H395Z"/><path class="cls-2" d="M397.29,176.34V165.45h3.87c2.46,0,4.18,1.26,4.18,4.73v1.42c0,3.46-1.72,4.74-4.18,4.74Zm5.84-4.74v-1.42c0-1.87-.5-2.85-2-2.85H399.5v7.15h1.66C402.63,174.48,403.13,173.48,403.13,171.6Z"/><rect class="cls-2" x="173.11" y="293.15" width="73.11" height="83.7" rx="5.09"/><path class="cls-5" d="M195.26,307.6a1.54,1.54,0,0,0-1.49-.76c-.68,0-1.05.31-1.05.82s.48.85,1.48,1.11c1.57.39,2.28,1,2.28,2.31s-.83,2.19-2.6,2.19A3.32,3.32,0,0,1,191,312l1.17-.81a1.88,1.88,0,0,0,1.64.75c.87,0,1.16-.38,1.16-.84s-.31-.81-1.53-1.13c-1.49-.39-2.23-1.1-2.23-2.35s.79-2.11,2.57-2.11a2.91,2.91,0,0,1,2.64,1.23Z"/><path class="cls-5" d="M202.3,305.65v1.29h-3.16v1.69H202v1.29h-2.83v2h3.16v1.29h-4.69v-7.52Z"/><path class="cls-5" d="M208.37,305.65v1.29H206.3v6.23h-1.52v-6.23H202.7v-1.29Z"/><path class="cls-5" d="M213.12,307.6a1.54,1.54,0,0,0-1.49-.76c-.68,0-1,.31-1,.82s.48.85,1.48,1.11c1.57.39,2.28,1,2.28,2.31s-.83,2.19-2.6,2.19a3.32,3.32,0,0,1-2.9-1.23l1.17-.81a1.87,1.87,0,0,0,1.63.75c.88,0,1.17-.38,1.17-.84s-.32-.81-1.54-1.13c-1.48-.39-2.22-1.1-2.22-2.35s.78-2.11,2.57-2.11a2.91,2.91,0,0,1,2.64,1.23Z"/><path class="cls-5" d="M219.59,309.21h-1.48v-1.49h1.48Zm0,4h-1.48v-1.48h1.48Z"/><path class="cls-5" d="M228.34,310.87a2.53,2.53,0,0,1-5.06,0V308a2.53,2.53,0,0,1,5.06,0Zm-2.53-4c-.69,0-1,.43-1,1.24v2.66c0,.81.33,1.24,1,1.24s1-.43,1-1.24v-2.66C226.81,307.27,226.48,306.84,225.81,306.84Z"/><path class="cls-5" d="M192.66,328.93h3.16v1.28h-4.68v-7.52h1.52Z"/><path class="cls-5" d="M201.32,322.69V324h-3.16v1.69H201V327h-2.83v2h3.16v1.28h-4.69v-7.52Z"/><path class="cls-5" d="M207.8,326.3V327c0,2.3-1.07,3.32-2.77,3.32s-2.88-1-2.88-3.32v-1c0-2.44,1.19-3.44,2.88-3.44a2.59,2.59,0,0,1,2.76,2.43h-1.47a1.24,1.24,0,0,0-1.29-1.14c-.89,0-1.36.6-1.36,2V327c0,1.44.47,2,1.36,2s1.21-.54,1.29-1.44h-1.26V326.3Z"/><path class="cls-5" d="M213,324.64a1.53,1.53,0,0,0-1.48-.76c-.69,0-1.06.31-1.06.83s.48.85,1.49,1.1c1.57.39,2.28,1,2.28,2.31s-.83,2.19-2.6,2.19a3.31,3.31,0,0,1-2.9-1.23l1.17-.81a1.88,1.88,0,0,0,1.63.76c.87,0,1.17-.39,1.17-.84s-.32-.82-1.54-1.14c-1.48-.39-2.22-1.1-2.22-2.34s.78-2.12,2.57-2.12a2.93,2.93,0,0,1,2.64,1.23Z"/><path class="cls-5" d="M219.44,326.26H218v-1.5h1.48Zm0,3.95H218v-1.48h1.48Z"/><path class="cls-5" d="M228.18,327.91a2.53,2.53,0,0,1-5.06,0V325a2.53,2.53,0,0,1,5.06,0Zm-2.53-4c-.68,0-1,.43-1,1.24v2.66c0,.81.33,1.25,1,1.25s1-.44,1-1.25v-2.66C226.66,324.31,226.33,323.88,225.65,323.88Z"/><path class="cls-5" d="M199.2,362.06a2.53,2.53,0,0,1-5.06,0v-2.93a2.53,2.53,0,0,1,5.06,0Zm-2.53-4c-.69,0-1,.44-1,1.24v2.66c0,.81.33,1.25,1,1.25s1-.44,1-1.25v-2.66C197.67,358.46,197.35,358,196.67,358Z"/><path class="cls-5" d="M202,364.36h-1.7v-1.7H202Z"/><path class="cls-5" d="M208.1,362.06a2.53,2.53,0,0,1-5.06,0v-2.93a2.53,2.53,0,0,1,5.06,0Zm-2.53-4c-.69,0-1,.44-1,1.24v2.66c0,.81.33,1.25,1,1.25s1-.44,1-1.25v-2.66C206.57,358.46,206.24,358,205.57,358Z"/><path class="cls-5" d="M214,362.06a2.53,2.53,0,0,1-5.06,0v-2.93a2.53,2.53,0,0,1,5.06,0Zm-2.53-4c-.68,0-1,.44-1,1.24v2.66c0,.81.33,1.25,1,1.25s1-.44,1-1.25v-2.66C212.46,358.46,212.13,358,211.45,358Z"/><path class="cls-5" d="M220.64,359a1.64,1.64,0,1,1-3.28,0v-.64a1.64,1.64,0,0,1,3.28,0Zm3.38-2.16-4.19,7.53h-1.36l4.21-7.53Zm-4.5,2.16v-.61c0-.5-.17-.69-.52-.69s-.51.2-.51.69V359c0,.47.15.69.51.69S219.52,359.46,219.52,359Zm5.66,3.83a1.64,1.64,0,0,1-3.28,0v-.64a1.64,1.64,0,0,1,3.28,0Zm-1.12,0v-.61c0-.5-.18-.69-.53-.69s-.5.2-.5.69v.61c0,.47.15.69.5.69S224.06,363.29,224.06,362.82Z"/><path class="cls-5" d="M204.8,345.15a2.53,2.53,0,0,1-5.06,0v-2.92a2.53,2.53,0,0,1,5.06,0Zm-2.53-4c-.69,0-1,.44-1,1.25V345c0,.81.33,1.24,1,1.24s1-.43,1-1.24v-2.66C203.27,341.55,202.94,341.11,202.27,341.11Z"/><path class="cls-5" d="M207.57,347.45h-1.71v-1.7h1.71Z"/><path class="cls-5" d="M213.69,345.15a2.53,2.53,0,0,1-5.06,0v-2.92a2.53,2.53,0,0,1,5.06,0Zm-2.53-4c-.68,0-1,.44-1,1.25V345c0,.81.33,1.24,1,1.24s1-.43,1-1.24v-2.66C212.17,341.55,211.84,341.11,211.16,341.11Z"/><path class="cls-5" d="M219.58,345.15a2.53,2.53,0,0,1-5.06,0v-2.92a2.53,2.53,0,0,1,5.06,0Zm-2.53-4c-.69,0-1,.44-1,1.25V345c0,.81.32,1.24,1,1.24s1-.43,1-1.24v-2.66C218.05,341.55,217.73,341.11,217.05,341.11Z"/><rect class="cls-2" x="348.91" y="293.15" width="73.11" height="83.7" rx="5.09"/><path class="cls-5" d="M371.07,307.6a1.54,1.54,0,0,0-1.49-.76c-.68,0-1.05.31-1.05.82s.48.85,1.48,1.11c1.57.39,2.28,1,2.28,2.31s-.83,2.19-2.6,2.19a3.32,3.32,0,0,1-2.9-1.23l1.17-.81a1.87,1.87,0,0,0,1.63.75c.88,0,1.17-.38,1.17-.84s-.32-.81-1.54-1.13c-1.48-.39-2.22-1.1-2.22-2.35s.78-2.11,2.57-2.11a2.91,2.91,0,0,1,2.64,1.23Z"/><path class="cls-5" d="M378.11,305.65v1.29H375v1.69h2.83v1.29H375v2h3.16v1.29h-4.69v-7.52Z"/><path class="cls-5" d="M384.18,305.65v1.29h-2.07v6.23h-1.53v-6.23h-2.07v-1.29Z"/><path class="cls-5" d="M388.92,307.6a1.53,1.53,0,0,0-1.48-.76c-.69,0-1.06.31-1.06.82s.48.85,1.49,1.11c1.57.39,2.28,1,2.28,2.31s-.83,2.19-2.6,2.19a3.31,3.31,0,0,1-2.9-1.23l1.17-.81a1.87,1.87,0,0,0,1.63.75c.88,0,1.17-.38,1.17-.84s-.32-.81-1.54-1.13c-1.48-.39-2.22-1.1-2.22-2.35s.78-2.11,2.57-2.11a2.91,2.91,0,0,1,2.64,1.23Z"/><path class="cls-5" d="M395.4,309.21h-1.48v-1.49h1.48Zm0,4h-1.48v-1.48h1.48Z"/><path class="cls-5" d="M404.14,310.87a2.53,2.53,0,0,1-5.06,0V308a2.53,2.53,0,0,1,5.06,0Zm-2.53-4c-.68,0-1,.43-1,1.24v2.66c0,.81.33,1.24,1,1.24s1-.43,1-1.24v-2.66C402.62,307.27,402.29,306.84,401.61,306.84Z"/><path class="cls-5" d="M368.47,328.93h3.16v1.28h-4.69v-7.52h1.53Z"/><path class="cls-5" d="M377.13,322.69V324H374v1.69h2.83V327H374v2h3.16v1.28h-4.69v-7.52Z"/><path class="cls-5" d="M383.6,326.3V327c0,2.3-1.06,3.32-2.77,3.32s-2.87-1-2.87-3.32v-1c0-2.44,1.18-3.44,2.87-3.44a2.58,2.58,0,0,1,2.76,2.43h-1.46a1.24,1.24,0,0,0-1.3-1.14c-.88,0-1.35.6-1.35,2V327c0,1.44.47,2,1.35,2s1.22-.54,1.3-1.44h-1.26V326.3Z"/><path class="cls-5" d="M388.77,324.64a1.53,1.53,0,0,0-1.48-.76c-.69,0-1.06.31-1.06.83s.48.85,1.48,1.1c1.57.39,2.28,1,2.28,2.31s-.82,2.19-2.59,2.19a3.31,3.31,0,0,1-2.9-1.23l1.16-.81a1.91,1.91,0,0,0,1.64.76c.87,0,1.17-.39,1.17-.84s-.32-.82-1.54-1.14c-1.48-.39-2.23-1.1-2.23-2.34s.79-2.12,2.58-2.12a2.93,2.93,0,0,1,2.64,1.23Z"/><path class="cls-5" d="M395.25,326.26h-1.49v-1.5h1.49Zm0,3.95h-1.49v-1.48h1.49Z"/><path class="cls-5" d="M404,327.91a2.53,2.53,0,0,1-5.06,0V325a2.53,2.53,0,0,1,5.06,0Zm-2.53-4c-.68,0-1,.43-1,1.24v2.66c0,.81.33,1.25,1,1.25s1-.44,1-1.25v-2.66C402.47,324.31,402.14,323.88,401.46,323.88Z"/><path class="cls-5" d="M375,362.06a2.53,2.53,0,0,1-5.06,0v-2.93a2.53,2.53,0,0,1,5.06,0Zm-2.53-4c-.69,0-1,.44-1,1.24v2.66c0,.81.33,1.25,1,1.25s1-.44,1-1.25v-2.66C373.48,358.46,373.15,358,372.48,358Z"/><path class="cls-5" d="M377.78,364.36h-1.71v-1.7h1.71Z"/><path class="cls-5" d="M383.9,362.06a2.53,2.53,0,0,1-5.06,0v-2.93a2.53,2.53,0,0,1,5.06,0Zm-2.53-4c-.68,0-1,.44-1,1.24v2.66c0,.81.33,1.25,1,1.25s1-.44,1-1.25v-2.66C382.38,358.46,382.05,358,381.37,358Z"/><path class="cls-5" d="M389.79,362.06a2.53,2.53,0,0,1-5.06,0v-2.93a2.53,2.53,0,0,1,5.06,0Zm-2.53-4c-.69,0-1,.44-1,1.24v2.66c0,.81.32,1.25,1,1.25s1-.44,1-1.25v-2.66C388.26,358.46,387.94,358,387.26,358Z"/><path class="cls-5" d="M396.45,359a1.64,1.64,0,1,1-3.28,0v-.64a1.64,1.64,0,0,1,3.28,0Zm3.38-2.16-4.2,7.53h-1.35l4.21-7.53Zm-4.5,2.16v-.61c0-.5-.18-.69-.52-.69s-.51.2-.51.69V359c0,.47.15.69.51.69S395.33,359.46,395.33,359Zm5.66,3.83a1.64,1.64,0,0,1-3.28,0v-.64a1.64,1.64,0,0,1,3.28,0Zm-1.12,0v-.61c0-.5-.18-.69-.53-.69s-.5.2-.5.69v.61c0,.47.15.69.5.69S399.87,363.29,399.87,362.82Z"/><path class="cls-5" d="M380.61,345.15a2.53,2.53,0,0,1-5.06,0v-2.92a2.53,2.53,0,0,1,5.06,0Zm-2.53-4c-.69,0-1,.44-1,1.25V345c0,.81.33,1.24,1,1.24s1-.43,1-1.24v-2.66C379.08,341.55,378.75,341.11,378.08,341.11Z"/><path class="cls-5" d="M383.37,347.45h-1.7v-1.7h1.7Z"/><path class="cls-5" d="M389.5,345.15a2.53,2.53,0,0,1-5.06,0v-2.92a2.53,2.53,0,0,1,5.06,0Zm-2.53-4c-.68,0-1,.44-1,1.25V345c0,.81.33,1.24,1,1.24s1-.43,1-1.24v-2.66C388,341.55,387.65,341.11,387,341.11Z"/><path class="cls-5" d="M395.39,345.15a2.53,2.53,0,0,1-5.06,0v-2.92a2.53,2.53,0,0,1,5.06,0Zm-2.53-4c-.69,0-1,.44-1,1.25V345c0,.81.32,1.24,1,1.24s1-.43,1-1.24v-2.66C393.86,341.55,393.54,341.11,392.86,341.11Z"/><rect class="cls-1" x="14.58" y="17.04" width="153.76" height="31.16" rx="6.46"/><path class="cls-2" d="M73.39,28.48v1.66H70.15v1.7H73v1.65H70.15v3.27h-2V28.48Z"/><path class="cls-2" d="M76.46,36.76h-2V28.48h2Z"/><path class="cls-2" d="M82.42,36.76,81,33.63H80v3.13H78V28.48h3.12c1.91,0,3.13.87,3.13,2.6A2.24,2.24,0,0,1,83,33.28l1.66,3.48ZM80.9,32c.8,0,1.38-.11,1.38-.89s-.58-.94-1.38-.94H80V32Z"/><path class="cls-2" d="M89.82,30.77A1.48,1.48,0,0,0,88.34,30c-.66,0-1,.29-1,.71s.43.77,1.48,1.07c1.8.52,2.48,1.19,2.48,2.6s-1,2.48-2.89,2.48a3.81,3.81,0,0,1-3.31-1.36l1.49-1a1.93,1.93,0,0,0,1.65.74c.77,0,1.07-.32,1.07-.72s-.34-.72-1.56-1.11c-1.68-.54-2.4-1.31-2.4-2.64s.9-2.39,2.92-2.39a3.32,3.32,0,0,1,3,1.36Z"/><path class="cls-2" d="M98.14,28.48v1.66H96v6.62H94V30.14H91.83V28.48Z"/><path class="cls-2" d="M107.69,28.48v1.66h-2.15v6.62h-2V30.14h-2.15V28.48Z"/><path class="cls-2" d="M111.5,36.88c-1.88,0-3.26-1.14-3.26-3.61V32c0-2.49,1.38-3.61,3.26-3.61s3.26,1.12,3.26,3.61v1.3C114.76,35.74,113.38,36.88,111.5,36.88Zm-1.27-3.61c0,1.35.44,1.95,1.27,1.95s1.27-.6,1.27-1.95V32c0-1.36-.44-1.95-1.27-1.95s-1.27.59-1.27,1.95Z"/><path class="cls-2" d="M123.38,36.76h-2V30.51l-1.19.73V29.39l1.43-.91h1.75Z"/></svg>