<svg id="Ebene_1" data-name="Ebene 1" xmlns="http://www.w3.org/2000/svg" viewBox="0 0 595.28 841.89"><defs><style>.cls-1{fill:#1d1d1b;stroke-width:0.28px;}.cls-1,.cls-4,.cls-7{stroke:#000;}.cls-1,.cls-4,.cls-7,.cls-8{stroke-miterlimit:10;}.cls-2{fill:#f5be46;}.cls-3{fill:#cc2a1d;}.cls-4,.cls-7{fill:none;}.cls-4{stroke-width:3.87px;}.cls-5{fill:#fff;}.cls-6,.cls-8{fill:#010101;}.cls-7{stroke-width:3.9px;}.cls-8{stroke:#010101;stroke-width:2.44px;}</style></defs><title>Zeichenfläche 9</title><path class="cls-1" d="M242.66,220.26V203.93h6.09c3.71,0,6.43,1.83,6.43,7v2.37c0,5.11-2.72,7-6.43,7Zm8.59-7v-2.37c0-2.2-.47-3.71-2.5-3.71h-2.16V217h2.16C250.78,217,251.25,215.48,251.25,213.28Z"/><path class="cls-1" d="M255.3,220.26,261,203.93h3.78l5.68,16.33h-4.19l-.87-2.79h-5l-.85,2.79Zm6.06-6.06h3l-1.49-4.82Z"/><path class="cls-1" d="M280.31,220.26l-2.72-6.18h-2v6.18h-3.93V203.93h6.16c3.76,0,6.17,1.73,6.17,5.14a4.4,4.4,0,0,1-2.6,4.33l3.26,6.86Zm-3-9.44c1.59,0,2.72-.21,2.72-1.75s-1.13-1.87-2.72-1.87h-1.75v3.62Z"/><path class="cls-1" d="M297.41,203.93v3.27h-4.26v13.06h-3.92V207.2H285v-3.27Z"/><path class="cls-1" d="M307.56,208.45a2.9,2.9,0,0,0-2.91-1.49c-1.3,0-1.87.59-1.87,1.42s.86,1.52,2.91,2.11c3.55,1,4.9,2.34,4.9,5.13,0,3-2,4.88-5.7,4.88-3,0-5-.74-6.53-2.68l2.93-2.06a3.79,3.79,0,0,0,3.27,1.47c1.51,0,2.1-.64,2.1-1.42,0-.94-.66-1.42-3.07-2.2-3.31-1.06-4.73-2.58-4.73-5.2s1.77-4.71,5.75-4.71c2.6,0,4.7.87,5.86,2.67Z"/><path class="cls-1" d="M324.81,211.62v1.75c0,4.88-2.29,7.13-6,7.13s-6.43-2.25-6.43-7.13v-2.22c0-5.25,2.72-7.45,6.43-7.45,3.55,0,5.54,2.08,6,5.27h-3.74a2.22,2.22,0,0,0-2.27-2c-1.63,0-2.51,1.19-2.51,3.86v2.55c0,2.68.88,3.86,2.51,3.86s2.11-1,2.25-2.34h-2.18v-3.27Z"/><path class="cls-1" d="M337.61,203.93v3.27h-6.39v3h5.68v3.27h-5.68V217h6.39v3.27H327.29V203.93Z"/><path class="cls-1" d="M348.31,220.26l-2.73-6.18h-2v6.18h-3.93V203.93h6.15c3.77,0,6.18,1.73,6.18,5.14a4.4,4.4,0,0,1-2.6,4.33l3.26,6.86Zm-3-9.44c1.58,0,2.72-.21,2.72-1.75s-1.14-1.87-2.72-1.87h-1.75v3.62Z"/><path class="cls-2" d="M342.12,132.75l-38.25,34.88,0-75.34L334.1,71.42a6.46,6.46,0,0,1,10.13,5.32V128A6.47,6.47,0,0,1,342.12,132.75Z"/><path d="M253.15,132.75l38.26,34.88,0-75.34L261.17,71.42a6.45,6.45,0,0,0-10.12,5.32V128A6.44,6.44,0,0,0,253.15,132.75Z"/><rect class="cls-3" x="291.42" y="92.28" width="12.43" height="75.36"/><path class="cls-3" d="M303.85,167.63l-1.84,1.7a6.46,6.46,0,0,1-8.74,0l-1.85-1.7"/><path d="M284.68,571H311a.41.41,0,0,1,.41.41v19.47a.82.82,0,0,1-.82.82H284.68a.82.82,0,0,1-.82-.82V571.86A.82.82,0,0,1,284.68,571Z"/><path class="cls-4" d="M304.46,568.26a6.83,6.83,0,0,0-13.64,0v5.5h13.64Z"/><rect class="cls-5" x="296.33" y="567.22" width="11.33" height="3.81"/><rect class="cls-6" x="220.76" y="624.39" width="153.76" height="31.16" rx="6.46"/><path class="cls-5" d="M277.86,638.39a1.12,1.12,0,0,0-1.15-1c-.83,0-1.27.6-1.27,2v1.3c0,1.29.43,2,1.27,2a1.06,1.06,0,0,0,1.15-1h1.9a2.77,2.77,0,0,1-3.05,2.68c-1.88,0-3.26-1.14-3.26-3.61v-1.3c0-2.49,1.38-3.61,3.26-3.61a2.86,2.86,0,0,1,3.05,2.68Z"/><path class="cls-5" d="M283.8,644.23c-1.88,0-3.26-1.14-3.26-3.61v-1.3c0-2.49,1.38-3.61,3.26-3.61s3.27,1.12,3.27,3.61v1.3C287.07,643.09,285.69,644.23,283.8,644.23Zm-1.27-3.61c0,1.35.45,2,1.27,2s1.27-.6,1.27-2v-1.3c0-1.35-.44-2-1.27-2s-1.27.6-1.27,2Z"/><path class="cls-5" d="M294.85,635.83v8.28h-1.61l-3-4.58v4.58h-1.87v-8.28h1.58l3.07,4.64v-4.64Z"/><path class="cls-5" d="M301.52,635.83v1.66h-3.23v1.7h2.87v1.66h-2.87v3.26h-2v-8.28Z"/><path class="cls-5" d="M306.89,644.11,305.51,641h-1v3.13h-2v-8.28h3.12c1.9,0,3.12.88,3.12,2.6a2.23,2.23,0,0,1-1.31,2.2l1.65,3.48Zm-1.53-4.79c.81,0,1.38-.11,1.38-.89s-.57-.94-1.38-.94h-.88v1.83Z"/><path class="cls-5" d="M312.09,644.11h-2v-8.28h2Z"/><path class="cls-5" d="M317.74,640l2.23-4.2h1.86v8.28H320v-4.68l-1.71,3.31h-1.06l-1.67-3.27v4.64h-1.87v-8.28h1.84Z"/><path d="M284.56,436.05h26.57a.42.42,0,0,1,.42.42v19.65a.83.83,0,0,1-.83.83H284.56a.83.83,0,0,1-.83-.83V436.88A.83.83,0,0,1,284.56,436.05Z"/><path class="cls-7" d="M304.52,433.25a6.89,6.89,0,0,0-13.76,0v5.55h13.76Z"/><rect class="cls-6" x="220.76" y="489.59" width="153.76" height="31.16" rx="6.46"/><path class="cls-5" d="M269.55,506.51v2.8h-2V501h3.11c1.91,0,3.13.84,3.13,2.69s-1.21,2.79-3.13,2.79Zm.76-1.65c1.05,0,1.5-.31,1.5-1.14,0-.67-.45-1-1.5-1h-.76v2.17Z"/><path class="cls-5" d="M273.21,509.31l2.88-8.28H278l2.87,8.28h-2.12l-.44-1.42h-2.56l-.43,1.42Zm3.07-3.07h1.52l-.75-2.45Z"/><path class="cls-5" d="M285.79,503.32a1.46,1.46,0,0,0-1.47-.75c-.66,0-.95.3-.95.72s.43.77,1.48,1.07c1.8.51,2.48,1.18,2.48,2.6s-1,2.47-2.89,2.47a3.79,3.79,0,0,1-3.31-1.36l1.49-1a1.89,1.89,0,0,0,1.65.74c.77,0,1.07-.32,1.07-.72s-.34-.72-1.56-1.11c-1.68-.54-2.4-1.31-2.4-2.64s.9-2.39,2.92-2.39a3.36,3.36,0,0,1,3,1.36Z"/><path class="cls-5" d="M292.72,503.32a1.47,1.47,0,0,0-1.48-.75c-.66,0-.94.3-.94.72s.43.77,1.47,1.07c1.8.51,2.48,1.18,2.48,2.6s-1,2.47-2.89,2.47a3.79,3.79,0,0,1-3.31-1.36l1.49-1a1.9,1.9,0,0,0,1.65.74c.77,0,1.07-.32,1.07-.72s-.33-.72-1.56-1.11c-1.68-.54-2.4-1.31-2.4-2.64s.9-2.39,2.92-2.39a3.33,3.33,0,0,1,3,1.36Z"/><path class="cls-5" d="M298.39,509.31h-1.87L294.68,501h2.16l.89,4.94L299.2,501h1.74l1.5,5,.9-5h2.15l-1.84,8.28h-1.89L300.07,504Z"/><path class="cls-5" d="M309.36,509.43c-1.88,0-3.26-1.14-3.26-3.61v-1.3c0-2.49,1.38-3.61,3.26-3.61s3.26,1.12,3.26,3.61v1.3C312.62,508.29,311.24,509.43,309.36,509.43Zm-1.27-3.61c0,1.35.44,1.95,1.27,1.95s1.27-.6,1.27-1.95v-1.3c0-1.35-.44-1.95-1.27-1.95s-1.27.6-1.27,1.95Z"/><path class="cls-5" d="M318.29,509.31l-1.38-3.13h-1v3.13h-2V501H317c1.91,0,3.13.88,3.13,2.61a2.21,2.21,0,0,1-1.31,2.19l1.65,3.48Zm-1.53-4.79c.81,0,1.38-.1,1.38-.88s-.57-.95-1.38-.95h-.88v1.83Z"/><path class="cls-5" d="M321.38,509.31V501h3.08c1.88,0,3.26.93,3.26,3.54v1.2c0,2.59-1.38,3.54-3.26,3.54Zm4.35-3.54v-1.2c0-1.11-.24-1.88-1.27-1.88h-1.09v5h1.09C325.49,507.65,325.73,506.89,325.73,505.77Z"/><path class="cls-8" d="M287.9,311a9.74,9.74,0,1,0,19.48,0V300.76a9.74,9.74,0,0,0-19.48,0Z"/><rect class="cls-5" x="296.01" y="298.05" width="3.25" height="7.03" rx="1.62"/><rect class="cls-6" x="220.76" y="354.64" width="153.76" height="31.16" rx="6.46"/><path class="cls-5" d="M253.25,366.11V371c0,2.45-1.42,3.47-3.26,3.47s-3.26-1-3.26-3.46v-4.94h2v4.94c0,1.22.36,1.8,1.27,1.8s1.27-.58,1.27-1.8v-4.94Z"/><path class="cls-5" d="M259,368.4a1.46,1.46,0,0,0-1.47-.75c-.66,0-.95.3-.95.72s.43.77,1.48,1.07c1.8.51,2.48,1.18,2.48,2.6s-1,2.47-2.89,2.47a3.79,3.79,0,0,1-3.31-1.36l1.48-1a1.92,1.92,0,0,0,1.66.74c.77,0,1.07-.32,1.07-.72s-.34-.72-1.56-1.11c-1.68-.54-2.4-1.31-2.4-2.64s.9-2.39,2.91-2.39a3.36,3.36,0,0,1,3,1.36Z"/><path class="cls-5" d="M266.85,366.11v1.66h-3.24v1.51h2.88v1.65h-2.88v1.8h3.24v1.66h-5.23v-8.28Z"/><path class="cls-5" d="M272.28,374.39l-1.38-3.13h-1v3.13h-2v-8.28H271c1.91,0,3.13.88,3.13,2.61a2.22,2.22,0,0,1-1.32,2.19l1.66,3.48Zm-1.53-4.79c.81,0,1.38-.1,1.38-.88s-.57-1-1.38-1h-.89v1.83Z"/><path class="cls-5" d="M281.89,366.11v8.28h-1.61l-3-4.58v4.58h-1.87v-8.28h1.58l3.08,4.65v-4.65Z"/><path class="cls-5" d="M282.49,374.39l2.88-8.28h1.92l2.88,8.28H288L287.6,373H285l-.43,1.42Zm3.07-3.07h1.52l-.75-2.45Z"/><path class="cls-5" d="M294.86,370.31l2.23-4.2H299v8.28h-1.87v-4.68L295.37,373h-1.06l-1.67-3.27v4.64h-1.87v-8.28h1.85Z"/><path class="cls-5" d="M305.62,366.11v1.66h-3.24v1.51h2.88v1.65h-2.88v1.8h3.24v1.66h-5.23v-8.28Z"/><path class="cls-5" d="M311.67,375.78h-1.73V364.65h1.73Z"/><path class="cls-5" d="M321.56,366.11v1.66h-3.24v1.51h2.88v1.65h-2.88v1.8h3.24v1.66h-5.23v-8.28Z"/><path class="cls-5" d="M326.67,370.31l2.23-4.2h1.86v8.28h-1.87v-4.68l-1.7,3.31h-1.07l-1.67-3.27v4.64h-1.87v-8.28h1.85Z"/><path class="cls-5" d="M331.36,374.39l2.88-8.28h1.92l2.88,8.28h-2.12l-.45-1.42h-2.55l-.43,1.42Zm3.08-3.07H336l-.76-2.45Z"/><path class="cls-5" d="M341.75,374.39h-2v-8.28h2Z"/><path class="cls-5" d="M345.31,372.73h3.24v1.66h-5.23v-8.28h2Z"/><circle class="cls-2" cx="297.8" cy="701.38" r="6.79"/><path class="cls-2" d="M283.49,720v0a6.45,6.45,0,0,1,5.36-6.37l4-.69,4.83,7.4,4.82-7.4,4,.69a6.46,6.46,0,0,1,5.37,6.37v0S298.92,732.9,283.49,720Z"/><rect class="cls-2" x="220.76" y="757.4" width="153.76" height="31.16" rx="6.46"/><path class="cls-6" d="M280.54,771.13a1.47,1.47,0,0,0-1.48-.75c-.66,0-.94.29-.94.71s.43.77,1.47,1.07c1.8.52,2.48,1.19,2.48,2.6s-1,2.48-2.89,2.48a3.81,3.81,0,0,1-3.31-1.36l1.49-1a1.93,1.93,0,0,0,1.65.74c.77,0,1.07-.32,1.07-.72s-.33-.72-1.56-1.11c-1.68-.54-2.4-1.31-2.4-2.64s.9-2.39,2.92-2.39a3.31,3.31,0,0,1,3,1.36Z"/><path class="cls-6" d="M285.27,777.12h-2v-8.28h2Z"/><path class="cls-6" d="M293,772.74v.89c0,2.47-1.17,3.61-3,3.61s-3.26-1.14-3.26-3.61V772.5c0-2.66,1.38-3.78,3.26-3.78a2.87,2.87,0,0,1,3,2.67h-1.9a1.12,1.12,0,0,0-1.15-1c-.83,0-1.27.59-1.27,2v1.3c0,1.35.44,2,1.27,2s1.07-.5,1.14-1.19H290v-1.65Z"/><path class="cls-6" d="M300.74,768.84v8.28h-1.6l-3.05-4.59v4.59h-1.87v-8.28h1.58l3.07,4.64v-4.64Z"/><path class="cls-6" d="M311.71,768.84v4.93c0,2.45-1.43,3.47-3.26,3.47s-3.26-1-3.26-3.46v-4.94h2v4.94c0,1.21.36,1.8,1.27,1.8s1.27-.59,1.27-1.8v-4.94Z"/><path class="cls-6" d="M315.15,774.32v2.8h-2v-8.28h3.11c1.91,0,3.13.84,3.13,2.69s-1.21,2.79-3.13,2.79Zm.76-1.65c1,0,1.5-.32,1.5-1.14s-.45-1-1.5-1h-.76v2.17Z"/></svg>