<svg id="Ebene_1" data-name="Ebene 1" xmlns="http://www.w3.org/2000/svg" viewBox="0 0 595.28 841.89"><defs><style>.cls-1,.cls-3{fill:#fff;}.cls-2{fill:#1d1d1b;}.cls-3{stroke:#fff;stroke-miterlimit:10;stroke-width:0.23px;}.cls-4{fill:#f5be46;}</style></defs><title>Zeichenfläche 15</title><path class="cls-1" d="M297.64,248.44c-4.48,0-8.46-2.65-8.46-8.22V229.11c0-5.72,4-8.26,8.46-8.26s8.45,2.54,8.45,8.22v11.15C306.09,245.79,302.12,248.44,297.64,248.44Zm0-23.65c-2.46,0-4,1.67-4,4.56v10.59c0,2.89,1.52,4.56,4,4.56s3.93-1.67,3.93-4.56V229.35C301.57,226.46,300.05,224.79,297.64,224.79Z"/><rect class="cls-2" x="252.58" y="210.36" width="90.12" height="48.57" rx="6.28"/><path class="cls-1" d="M297.64,248.44c-4.48,0-8.46-2.65-8.46-8.22V229.11c0-5.72,4-8.26,8.46-8.26s8.45,2.54,8.45,8.22v11.15C306.09,245.79,302.12,248.44,297.64,248.44Zm0-23.65c-2.46,0-4,1.67-4,4.56v10.59c0,2.89,1.52,4.56,4,4.56s3.93-1.67,3.93-4.56V229.35C301.57,226.46,300.05,224.79,297.64,224.79Z"/><circle class="cls-2" cx="297.83" cy="125.45" r="7.9"/><path class="cls-2" d="M281.16,147.17V145.1a5.1,5.1,0,0,1,4.23-5l6.63-1.14,5.62,8.61,5.61-8.61,6.63,1.14a5.09,5.09,0,0,1,4.23,5v2.07S299.14,162.15,281.16,147.17Z"/><path class="cls-2" d="M277.22,176.34V165.45h3.86c2.47,0,4.19,1.26,4.19,4.73v1.42c0,3.46-1.72,4.74-4.19,4.74Zm5.84-4.74v-1.42c0-1.87-.51-2.85-2-2.85h-1.65v7.15h1.65C282.55,174.48,283.06,173.48,283.06,171.6Z"/><path class="cls-2" d="M285.63,176.34l3.79-10.89h2.11l3.79,10.89H293l-.67-2.07h-3.64l-.66,2.07Zm3.61-3.93h2.47l-1.24-3.84Z"/><path class="cls-2" d="M297,165.45l2.38,7.32,2.38-7.32h2.42l-3.79,10.89h-2l-3.81-10.89Z"/><path class="cls-2" d="M307.71,176.34H305.5V165.45h2.21Z"/><path class="cls-2" d="M310,176.34V165.45h3.87c2.46,0,4.18,1.26,4.18,4.73v1.42c0,3.46-1.72,4.74-4.18,4.74Zm5.84-4.74v-1.42c0-1.87-.51-2.85-2-2.85h-1.66v7.15h1.66C315.34,174.48,315.85,173.48,315.85,171.6Z"/><rect class="cls-2" x="261.08" y="293.15" width="73.11" height="83.7" rx="5.09"/><path class="cls-3" d="M283.24,307.6a1.54,1.54,0,0,0-1.49-.76c-.68,0-1.05.31-1.05.82s.47.85,1.48,1.11c1.57.39,2.28,1,2.28,2.31s-.83,2.19-2.6,2.19A3.32,3.32,0,0,1,279,312l1.17-.81a1.87,1.87,0,0,0,1.63.75c.88,0,1.17-.38,1.17-.84s-.32-.81-1.54-1.13c-1.48-.39-2.22-1.1-2.22-2.35s.78-2.11,2.57-2.11a2.91,2.91,0,0,1,2.64,1.23Z"/><path class="cls-3" d="M290.28,305.65v1.29h-3.16v1.69H290v1.29h-2.83v2h3.16v1.29h-4.69v-7.52Z"/><path class="cls-3" d="M296.35,305.65v1.29h-2.07v6.23h-1.53v-6.23h-2.07v-1.29Z"/><path class="cls-3" d="M301.09,307.6a1.53,1.53,0,0,0-1.48-.76c-.69,0-1.06.31-1.06.82s.48.85,1.49,1.11c1.57.39,2.28,1,2.28,2.31s-.83,2.19-2.6,2.19a3.31,3.31,0,0,1-2.9-1.23l1.17-.81a1.87,1.87,0,0,0,1.63.75c.87,0,1.17-.38,1.17-.84s-.32-.81-1.54-1.13c-1.48-.39-2.22-1.1-2.22-2.35s.78-2.11,2.57-2.11a2.91,2.91,0,0,1,2.64,1.23Z"/><path class="cls-3" d="M307.57,309.21h-1.48v-1.49h1.48Zm0,4h-1.48v-1.48h1.48Z"/><path class="cls-3" d="M316.31,310.87a2.53,2.53,0,0,1-5.06,0V308a2.53,2.53,0,0,1,5.06,0Zm-2.53-4c-.68,0-1,.43-1,1.24v2.66c0,.81.33,1.24,1,1.24s1-.43,1-1.24v-2.66C314.79,307.27,314.46,306.84,313.78,306.84Z"/><path class="cls-3" d="M280.64,328.93h3.16v1.28h-4.69v-7.52h1.53Z"/><path class="cls-3" d="M289.3,322.69V324h-3.16v1.69H289V327h-2.83v2h3.16v1.28h-4.69v-7.52Z"/><path class="cls-3" d="M295.77,326.3V327c0,2.3-1.06,3.32-2.77,3.32s-2.87-1-2.87-3.32v-1c0-2.44,1.18-3.44,2.87-3.44a2.59,2.59,0,0,1,2.76,2.43H294.3a1.24,1.24,0,0,0-1.3-1.14c-.88,0-1.35.6-1.35,2V327c0,1.44.47,2,1.35,2s1.22-.54,1.3-1.44H293V326.3Z"/><path class="cls-3" d="M300.94,324.64a1.54,1.54,0,0,0-1.48-.76c-.69,0-1.06.31-1.06.83s.48.85,1.48,1.1c1.57.39,2.28,1,2.28,2.31s-.83,2.19-2.59,2.19a3.31,3.31,0,0,1-2.9-1.23l1.16-.81a1.91,1.91,0,0,0,1.64.76c.87,0,1.17-.39,1.17-.84s-.32-.82-1.54-1.14c-1.48-.39-2.23-1.1-2.23-2.34s.79-2.12,2.58-2.12a2.93,2.93,0,0,1,2.64,1.23Z"/><path class="cls-3" d="M307.42,326.26h-1.49v-1.5h1.49Zm0,3.95h-1.49v-1.48h1.49Z"/><path class="cls-3" d="M316.16,327.91a2.53,2.53,0,0,1-5.06,0V325a2.53,2.53,0,0,1,5.06,0Zm-2.53-4c-.69,0-1,.43-1,1.24v2.66c0,.81.32,1.25,1,1.25s1-.44,1-1.25v-2.66C314.63,324.31,314.31,323.88,313.63,323.88Z"/><path class="cls-3" d="M287.18,362.06a2.53,2.53,0,0,1-5.06,0v-2.93a2.53,2.53,0,0,1,5.06,0Zm-2.53-4c-.69,0-1,.44-1,1.24v2.66c0,.81.33,1.25,1,1.25s1-.44,1-1.25v-2.66C285.65,358.46,285.32,358,284.65,358Z"/><path class="cls-3" d="M290,364.36h-1.71v-1.7H290Z"/><path class="cls-3" d="M296.07,362.06a2.53,2.53,0,0,1-5.06,0v-2.93a2.53,2.53,0,0,1,5.06,0Zm-2.53-4c-.68,0-1,.44-1,1.24v2.66c0,.81.33,1.25,1,1.25s1-.44,1-1.25v-2.66C294.55,358.46,294.22,358,293.54,358Z"/><path class="cls-3" d="M302,362.06a2.53,2.53,0,0,1-5.06,0v-2.93a2.53,2.53,0,0,1,5.06,0Zm-2.53-4c-.69,0-1,.44-1,1.24v2.66c0,.81.32,1.25,1,1.25s1-.44,1-1.25v-2.66C300.43,358.46,300.11,358,299.43,358Z"/><path class="cls-3" d="M308.62,359a1.64,1.64,0,1,1-3.28,0v-.64a1.64,1.64,0,0,1,3.28,0Zm3.38-2.16-4.2,7.53h-1.35l4.21-7.53ZM307.5,359v-.61c0-.5-.18-.69-.53-.69s-.5.2-.5.69V359c0,.47.15.69.5.69S307.5,359.46,307.5,359Zm5.66,3.83a1.64,1.64,0,0,1-3.28,0v-.64a1.64,1.64,0,0,1,3.28,0Zm-1.12,0v-.61c0-.5-.18-.69-.53-.69s-.5.2-.5.69v.61c0,.47.15.69.5.69S312,363.29,312,362.82Z"/><path class="cls-3" d="M292.78,345.15a2.53,2.53,0,0,1-5.06,0v-2.92a2.53,2.53,0,0,1,5.06,0Zm-2.53-4c-.69,0-1,.44-1,1.25V345c0,.81.33,1.24,1,1.24s1-.43,1-1.24v-2.66C291.25,341.55,290.92,341.11,290.25,341.11Z"/><path class="cls-3" d="M295.54,347.45h-1.7v-1.7h1.7Z"/><path class="cls-3" d="M301.67,345.15a2.53,2.53,0,0,1-5.06,0v-2.92a2.53,2.53,0,0,1,5.06,0Zm-2.53-4c-.68,0-1,.44-1,1.25V345c0,.81.33,1.24,1,1.24s1-.43,1-1.24v-2.66C300.15,341.55,299.82,341.11,299.14,341.11Z"/><path class="cls-3" d="M307.56,345.15a2.53,2.53,0,0,1-5.06,0v-2.92a2.53,2.53,0,0,1,5.06,0Zm-2.53-4c-.69,0-1,.44-1,1.25V345c0,.81.33,1.24,1,1.24s1-.43,1-1.24v-2.66C306,341.55,305.71,341.11,305,341.11Z"/><path class="cls-4" d="M195.29,467.08l-18.94,15.78a5.09,5.09,0,0,0,0,7.83l18.94,15.78"/><rect class="cls-2" x="253.09" y="462.49" width="90.12" height="48.57" rx="6.29"/><path class="cls-4" d="M400.16,467.08l18.94,15.78a5.1,5.1,0,0,1,0,7.83l-18.94,15.78"/><path class="cls-1" d="M298.15,500.56c-4.48,0-8.45-2.64-8.45-8.21V481.24c0-5.72,4-8.26,8.45-8.26s8.45,2.54,8.45,8.22v11.15C306.6,497.92,302.63,500.56,298.15,500.56Zm0-23.64c-2.45,0-4,1.67-4,4.56v10.59c0,2.89,1.52,4.56,4,4.56s3.94-1.67,3.94-4.56V481.48C302.09,478.59,300.57,476.92,298.15,476.92Z"/><path class="cls-4" d="M174.94,765.28l6.11,5.9a2.23,2.23,0,0,0,3.13,0L200.45,755a2.23,2.23,0,0,1,3.15,0l3.17,3.18a2.24,2.24,0,0,1,0,3.16L184.21,784a2.24,2.24,0,0,1-3.17,0l-12.49-12.48a2.23,2.23,0,0,1,0-3.2l3.25-3.1A2.23,2.23,0,0,1,174.94,765.28Z"/><rect class="cls-2" x="164.56" y="558.65" width="44.73" height="39.4" rx="5.1"/><path class="cls-1" d="M189.74,587.38h-3V572.59l-2.59,1.78V571.3l2.77-2h2.85Z"/><rect class="cls-2" x="385.98" y="558.64" width="44.73" height="39.4" rx="5.1"/><path class="cls-1" d="M406.62,576.75h1.25c1.89,0,2.91-1,2.91-2.7a2.4,2.4,0,0,0-2.56-2.38,2.45,2.45,0,0,0-2.57,2.22h-2.78c.08-2.9,2.54-4.81,5.45-4.81,3.17,0,5.47,2.17,5.47,4.89a4.4,4.4,0,0,1-2.56,4,4.54,4.54,0,0,1,2.82,4.38,5.15,5.15,0,0,1-5.52,5.23c-3.67,0-5.73-2.09-5.89-5h2.77a2.69,2.69,0,0,0,3,2.31A2.56,2.56,0,0,0,411,582.3c0-1.83-1.07-2.93-3.17-2.93h-1.25Z"/><rect class="cls-2" x="164.56" y="621.97" width="44.73" height="39.4" rx="5.1"/><path class="cls-1" d="M190.1,632.64l-5.79,12.7h4.24v-4.92h3v4.92h1.65V648h-1.65v2.72h-3V648h-7.93v-2.14l6.26-13.2Z"/><rect class="cls-2" x="385.98" y="621.97" width="44.73" height="39.4" rx="5.1"/><path class="cls-1" d="M407.44,640.19a4,4,0,0,1,1.73-.34c2.83,0,4.87,2.28,4.87,5.34,0,3.64-2.43,5.63-5.68,5.63s-5.71-2-5.71-5.57a12.76,12.76,0,0,1,1.47-4.74l3.69-8h3.3Zm.92,8a2.92,2.92,0,1,0-2.67-2.91A2.59,2.59,0,0,0,408.36,648.18Z"/><rect class="cls-2" x="164.56" y="685.25" width="44.73" height="39.4" rx="5.1"/><path class="cls-1" d="M181.62,701.52v-5.6h10.62v2.33L186.82,714h-3.16l5.44-15.43h-4.87v3Z"/><rect class="cls-2" x="385.98" y="685.25" width="44.73" height="39.4" rx="5.11"/><path class="cls-1" d="M409.25,706.43a3.6,3.6,0,0,1-1.73.37c-2.83,0-4.87-2.28-4.87-5.37a5.3,5.3,0,0,1,5.68-5.63c3.25,0,5.71,2,5.71,5.58a12.63,12.63,0,0,1-1.47,4.74l-3.66,8h-3.3Zm-.92-8a2.92,2.92,0,1,0,2.67,2.9A2.59,2.59,0,0,0,408.33,698.45Z"/><rect class="cls-2" x="275.25" y="558.65" width="44.73" height="39.4" rx="5.09"/><path class="cls-1" d="M303,587.5H292.09v-2.15l6.21-7.28a5.94,5.94,0,0,0,1.83-3.8,2.57,2.57,0,0,0-5.13,0h-2.77a5.47,5.47,0,0,1,10.91.06c0,2.27-1.57,4-2.72,5.44l-4.27,5.11H303Z"/><rect class="cls-2" x="275.25" y="621.97" width="44.73" height="39.4" rx="5.1"/><path class="cls-1" d="M295.43,642.32l-2.75-.06.22-9.79,9.79.21-.07,2.86-6.83-.15-.08,3.82a3.69,3.69,0,0,1,2.8-1c3,.07,4.71,2.43,4.62,6.62-.09,4-2,6.11-5.63,6a5.19,5.19,0,0,1-5.4-4.83l3,.07a2.4,2.4,0,0,0,2.41,2.12c1.55,0,2.54-1,2.59-3.35s-.65-3.81-2.43-3.85A2.46,2.46,0,0,0,295.43,642.32Z"/><rect class="cls-2" x="275.25" y="685.25" width="44.73" height="39.4" rx="5.09"/><path class="cls-1" d="M294.5,704.61a4.48,4.48,0,0,1-2.46-4c0-3.12,2.67-5,5.58-5s5.57,1.86,5.57,5a4.48,4.48,0,0,1-2.46,4,4.72,4.72,0,0,1,2.73,4.32c0,3.3-2.73,5.29-5.84,5.29s-5.84-2-5.84-5.29A4.82,4.82,0,0,1,294.5,704.61Zm3.12,7a2.84,2.84,0,0,0,0-5.68,2.84,2.84,0,0,0,0,5.68Zm0-8.14a2.57,2.57,0,0,0,2.56-2.59,2.57,2.57,0,1,0-2.56,2.59Z"/><rect class="cls-2" x="275.25" y="748.72" width="44.73" height="39.4" rx="5.11"/><path class="cls-1" d="M297.62,777.68c-3,0-5.68-1.78-5.68-5.52V764.7c0-3.85,2.67-5.55,5.68-5.55s5.68,1.7,5.68,5.52v7.49C303.3,775.9,300.63,777.68,297.62,777.68Zm0-15.89c-1.65,0-2.67,1.13-2.67,3.07V772c0,1.93,1,3.06,2.67,3.06s2.64-1.13,2.64-3.06v-7.12C300.26,762.92,299.24,761.79,297.62,761.79Z"/><path class="cls-4" d="M398.9,748.72l18.94,15.78a5.09,5.09,0,0,1,0,7.83L398.9,788.11"/><rect class="cls-4" x="14.58" y="17.04" width="153.76" height="31.16" rx="6.46"/><path class="cls-2" d="M73.39,28.48v1.66H70.15v1.7H73v1.65H70.15v3.27h-2V28.48Z"/><path class="cls-2" d="M76.46,36.76h-2V28.48h2Z"/><path class="cls-2" d="M82.42,36.76,81,33.63H80v3.13H78V28.48h3.12c1.91,0,3.13.88,3.13,2.6A2.24,2.24,0,0,1,83,33.28l1.65,3.48ZM80.9,32c.8,0,1.38-.11,1.38-.89s-.58-.94-1.38-.94H80V32Z"/><path class="cls-2" d="M89.81,30.77A1.46,1.46,0,0,0,88.34,30c-.66,0-1,.3-1,.72s.43.76,1.48,1.06c1.8.52,2.48,1.19,2.48,2.61s-1,2.47-2.89,2.47a3.81,3.81,0,0,1-3.31-1.36l1.49-1a1.91,1.91,0,0,0,1.65.74c.77,0,1.07-.32,1.07-.72s-.34-.72-1.56-1.11c-1.68-.54-2.4-1.31-2.4-2.64s.9-2.39,2.92-2.39a3.32,3.32,0,0,1,3,1.36Z"/><path class="cls-2" d="M98.14,28.48v1.66H96v6.62H94V30.14H91.83V28.48Z"/><path class="cls-2" d="M107.69,28.48v1.66h-2.16v6.62h-2V30.14h-2.15V28.48Z"/><path class="cls-2" d="M111.5,36.88c-1.88,0-3.26-1.14-3.26-3.61V32c0-2.49,1.38-3.61,3.26-3.61s3.26,1.12,3.26,3.61v1.3C114.76,35.74,113.38,36.88,111.5,36.88Zm-1.27-3.61c0,1.35.44,1.95,1.27,1.95s1.27-.6,1.27-1.95V32c0-1.35-.44-1.95-1.27-1.95s-1.27.6-1.27,1.95Z"/><path class="cls-2" d="M123.38,36.76h-2V30.51l-1.19.73V29.39l1.43-.91h1.75Z"/></svg>