<svg id="Ebene_1" data-name="Ebene 1" xmlns="http://www.w3.org/2000/svg" viewBox="0 0 595.28 841.89"><defs><style>.cls-1{fill:#f5be46;}.cls-2{fill:#1d1d1b;}.cls-3{fill:#010101;}.cls-4,.cls-5{fill:none;stroke:#fff;stroke-miterlimit:10;}.cls-4{stroke-width:2.37px;}.cls-5{stroke-width:2.73px;}.cls-6{fill:#fff;}</style></defs><title>Zeichenfläche 17</title><rect class="cls-1" x="220.76" y="71.12" width="153.76" height="31.16" rx="6.46"/><path class="cls-2" d="M279.56,82.56v1.66h-3.23v1.7h2.87v1.65h-2.87v3.27h-2V82.56Z"/><path class="cls-2" d="M282.64,90.84h-2V82.56h2Z"/><path class="cls-2" d="M288.6,90.84l-1.38-3.13h-1v3.13h-2V82.56h3.12c1.91,0,3.13.87,3.13,2.6a2.24,2.24,0,0,1-1.32,2.2l1.65,3.48Zm-1.52-4.79c.8,0,1.38-.11,1.38-.89s-.58-.94-1.38-.94h-.89v1.83Z"/><path class="cls-2" d="M296,84.85a1.46,1.46,0,0,0-1.47-.75c-.66,0-.95.29-.95.71s.43.77,1.48,1.07c1.8.52,2.48,1.19,2.48,2.6s-1,2.48-2.89,2.48a3.81,3.81,0,0,1-3.31-1.36l1.49-1a1.91,1.91,0,0,0,1.65.74c.77,0,1.07-.32,1.07-.72s-.34-.72-1.56-1.11c-1.68-.54-2.4-1.31-2.4-2.64s.9-2.39,2.91-2.39a3.34,3.34,0,0,1,3,1.36Z"/><path class="cls-2" d="M304.32,82.56v1.66h-2.16v6.62h-2V84.22H298V82.56Z"/><path class="cls-2" d="M313.87,82.56v1.66h-2.16v6.62h-2V84.22h-2.16V82.56Z"/><path class="cls-2" d="M317.68,91c-1.89,0-3.26-1.14-3.26-3.61v-1.3c0-2.5,1.37-3.61,3.26-3.61s3.26,1.11,3.26,3.61v1.3C320.94,89.82,319.56,91,317.68,91Zm-1.27-3.61c0,1.35.44,2,1.27,2s1.27-.6,1.27-2v-1.3c0-1.36-.44-2-1.27-2s-1.27.59-1.27,2Z"/><rect class="cls-3" x="220.76" y="627.67" width="153.76" height="5.83" rx="2.79"/><path class="cls-3" d="M269,608.78v1.66h-3.24V612h2.88v1.65h-2.88v1.8H269v1.66h-5.23v-8.28Z"/><path class="cls-3" d="M276.53,608.78v8.28h-1.61l-3.05-4.58v4.58H270v-8.28h1.59l3.07,4.64v-4.64Z"/><path class="cls-3" d="M283.68,608.78v1.66h-2.16v6.62h-2v-6.62h-2.16v-1.66Z"/><path class="cls-3" d="M289.75,608.78v1.66h-3.24V612h2.88v1.65h-2.88v1.8h3.24v1.66h-5.23v-8.28Z"/><path class="cls-3" d="M295.18,617.06l-1.38-3.13h-1v3.13h-2v-8.28h3.11c1.91,0,3.13.88,3.13,2.6a2.24,2.24,0,0,1-1.32,2.2l1.66,3.48Zm-1.53-4.79c.81,0,1.38-.11,1.38-.89s-.57-.94-1.38-.94h-.88v1.83Z"/><path class="cls-3" d="M307.79,608.78v8.28h-1.61l-3.05-4.58v4.58h-1.87v-8.28h1.59l3.07,4.64v-4.64Z"/><path class="cls-3" d="M308.39,617.06l2.88-8.28h1.92l2.88,8.28h-2.13l-.44-1.42H311l-.44,1.42Zm3.07-3.07H313l-.75-2.45Z"/><path class="cls-3" d="M320.76,613l2.23-4.2h1.86v8.28H323v-4.68l-1.7,3.31h-1.07l-1.67-3.28v4.65h-1.87v-8.28h1.85Z"/><path class="cls-3" d="M331.52,608.78v1.66h-3.23V612h2.87v1.65h-2.87v1.8h3.23v1.66H326.3v-8.28Z"/><rect class="cls-1" x="220.76" y="464.7" width="153.76" height="31.16" rx="6.46"/><path class="cls-3" d="M276.16,481.62v2.8h-2v-8.28h3.12c1.91,0,3.13.84,3.13,2.69s-1.21,2.79-3.13,2.79Zm.77-1.65c1,0,1.5-.31,1.5-1.14,0-.67-.46-1-1.5-1h-.77V480Z"/><path class="cls-3" d="M283.26,482.76h3.23v1.66h-5.23v-8.28h2Z"/><path class="cls-3" d="M286.74,484.42l2.88-8.28h1.92l2.87,8.28h-2.12l-.44-1.42h-2.56l-.43,1.42Zm3.07-3.07h1.52l-.75-2.45Z"/><path class="cls-3" d="M295.94,476.14l1.28,2.85,1.29-2.85h2.29l-2.58,5v3.31h-2v-3.31l-2.58-5Z"/><path class="cls-3" d="M306.75,476.14v1.66h-3.24v1.51h2.88V481h-2.88v1.8h3.24v1.66h-5.23v-8.28Z"/><path class="cls-3" d="M312.17,484.42l-1.37-3.13h-1v3.13h-2v-8.28h3.12c1.91,0,3.13.88,3.13,2.61a2.22,2.22,0,0,1-1.32,2.19l1.66,3.48Zm-1.52-4.79c.81,0,1.38-.1,1.38-.88s-.57-.95-1.38-.95h-.89v1.83Z"/><path class="cls-3" d="M319.57,478.43a1.47,1.47,0,0,0-1.48-.75c-.66,0-.95.3-.95.72s.44.77,1.48,1.07c1.8.51,2.48,1.18,2.48,2.6s-1,2.47-2.89,2.47a3.79,3.79,0,0,1-3.31-1.36l1.49-1a1.9,1.9,0,0,0,1.65.74c.77,0,1.07-.32,1.07-.72s-.33-.72-1.56-1.11c-1.68-.54-2.4-1.31-2.4-2.64s.9-2.39,2.92-2.39a3.33,3.33,0,0,1,3,1.36Z"/><circle class="cls-2" cx="239.5" cy="555.27" r="17.43"/><ellipse class="cls-4" cx="239.5" cy="555.27" rx="10.4" ry="17.05"/><circle class="cls-5" cx="239.5" cy="537.84" r="10.4"/><circle class="cls-5" cx="239.5" cy="571.68" r="10.4"/><line class="cls-5" x1="219.62" y1="555.27" x2="259.37" y2="555.27"/><line class="cls-5" x1="239.5" y1="574.64" x2="239.5" y2="534.89"/><path class="cls-3" d="M284.54,549.27h.6a2.81,2.81,0,0,1,2.81,2.81v5.51a3,3,0,0,1-3,3h-.39a1.27,1.27,0,0,1-1.27-1.27v-8.78A1.27,1.27,0,0,1,284.54,549.27Z" transform="translate(571.21 1109.87) rotate(-180)"/><rect class="cls-3" x="286.97" y="542.71" width="29.06" height="24.45" rx="4.44"/><path class="cls-3" d="M316.28,549.22h.39a3,3,0,0,1,3,3v5.51a2.81,2.81,0,0,1-2.81,2.81h-.6a1.27,1.27,0,0,1-1.27-1.27v-8.78a1.27,1.27,0,0,1,1.27-1.27Z"/><rect class="cls-6" x="294.47" y="557.53" width="14.07" height="5.23" rx="2.57"/><circle class="cls-6" cx="295.11" cy="551.11" r="3.25"/><circle class="cls-6" cx="307.89" cy="551.11" r="3.25"/><rect class="cls-3" x="294.1" y="564.91" width="14.8" height="7.56" rx="2.67"/><circle class="cls-3" cx="301.5" cy="535.67" r="3.49"/><rect class="cls-3" x="299.72" y="538.79" width="3.56" height="3.92"/><circle class="cls-3" cx="361.09" cy="547.35" r="7.07"/><path class="cls-3" d="M346.19,566.78v0a6.74,6.74,0,0,1,5.58-6.64l4.13-.71,5,7.7,5-7.7,4.12.71a6.74,6.74,0,0,1,5.59,6.64v0S362.26,580.17,346.19,566.78Z"/><rect class="cls-2" x="278.73" y="136.29" width="37.81" height="33.31" rx="4.31"/><path class="cls-6" d="M300,160.58h-2.57v-12.5l-2.19,1.5V147l2.34-1.68H300Z"/><rect class="cls-1" x="220.76" y="219.6" width="153.76" height="31.16" rx="6.46"/><path class="cls-2" d="M286.85,237.66h3.24v1.66h-5.23V231h2Z"/><path class="cls-2" d="M296.16,231v1.66h-3.24v1.51h2.88v1.65h-2.88v1.8h3.24v1.66h-5.23V231Z"/><path class="cls-2" d="M303.31,234.94v.89c0,2.47-1.16,3.61-3,3.61S297,238.3,297,235.83V234.7c0-2.66,1.38-3.78,3.27-3.78a2.86,2.86,0,0,1,3,2.67h-1.89a1.12,1.12,0,0,0-1.15-1c-.83,0-1.28.59-1.28,1.95v1.3c0,1.35.45,1.95,1.28,1.95s1.06-.5,1.14-1.19H300.3v-1.65Z"/><path class="cls-2" d="M308.88,233.33a1.46,1.46,0,0,0-1.47-.75c-.66,0-1,.3-1,.72s.43.76,1.47,1.06c1.8.52,2.49,1.19,2.49,2.6s-1,2.48-2.89,2.48a3.83,3.83,0,0,1-3.32-1.36l1.49-1a1.93,1.93,0,0,0,1.66.74c.77,0,1.06-.32,1.06-.72s-.33-.72-1.55-1.11c-1.68-.54-2.4-1.31-2.4-2.64s.9-2.39,2.91-2.39a3.34,3.34,0,0,1,3,1.36Z"/><rect class="cls-2" x="264.17" y="284.79" width="66.93" height="33.31" rx="5.73"/><path class="cls-6" d="M286.18,300.1h1.05a2.13,2.13,0,0,0,2.44-2.26,2,2,0,0,0-2.15-2,2.06,2.06,0,0,0-2.16,1.87H283a4.62,4.62,0,0,1,9.18.06,3.71,3.71,0,0,1-2.16,3.39,3.8,3.8,0,0,1,2.38,3.68,4.34,4.34,0,0,1-4.65,4.4c-3.08,0-4.82-1.77-4.95-4.16h2.33a2.26,2.26,0,0,0,2.51,1.93,2.16,2.16,0,0,0,2.23-2.24c0-1.54-.91-2.47-2.67-2.47h-1.05Z"/><path class="cls-6" d="M299.22,309.24a4.43,4.43,0,0,1-4.77-4.65v-6.27c0-3.23,2.24-4.66,4.77-4.66s4.78,1.43,4.78,4.64v6.29C304,307.74,301.75,309.24,299.22,309.24Zm0-13.36c-1.38,0-2.24.95-2.24,2.57v6c0,1.63.86,2.57,2.24,2.57s2.22-.94,2.22-2.57v-6C301.44,296.83,300.59,295.88,299.22,295.88Z"/><path class="cls-6" d="M312.44,309h-2.55V296.61l-2.18,1.49v-2.57l2.34-1.68h2.39Z"/><rect class="cls-2" x="264.17" y="333.1" width="66.93" height="33.31" rx="5.73"/><path class="cls-6" d="M285.73,350.39h-2.32v-8.23h8.23v2.4H285.9v3.21a3.12,3.12,0,0,1,2.33-.88c2.53,0,4,2,4,5.48,0,3.32-1.59,5.17-4.62,5.17a4.36,4.36,0,0,1-4.62-4h2.51a2,2,0,0,0,2.06,1.73c1.3,0,2.12-.85,2.12-2.86s-.62-3.19-2.12-3.19A2,2,0,0,0,285.73,350.39Z"/><path class="cls-6" d="M299.06,357.54c-2.53,0-4.78-1.5-4.78-4.65v-6.27c0-3.23,2.25-4.66,4.78-4.66s4.77,1.43,4.77,4.64v6.29A4.43,4.43,0,0,1,299.06,357.54Zm0-13.36c-1.39,0-2.25.95-2.25,2.58v6c0,1.63.86,2.57,2.25,2.57s2.22-.94,2.22-2.57v-6C301.28,345.13,300.42,344.18,299.06,344.18Z"/><path class="cls-6" d="M312.28,357.34h-2.55V344.91l-2.18,1.49v-2.57l2.33-1.67h2.4Z"/><rect class="cls-2" x="264.17" y="381.4" width="66.93" height="33.31" rx="5.73"/><path class="cls-6" d="M283.1,395.17v-4.71H292v2l-4.56,13.22h-2.66l4.58-13H285.3v2.49Z"/><path class="cls-6" d="M299,405.84c-2.53,0-4.78-1.5-4.78-4.64v-6.27c0-3.24,2.25-4.67,4.78-4.67s4.77,1.43,4.77,4.64v6.3C303.73,404.34,301.49,405.84,299,405.84Zm0-13.36c-1.39,0-2.25.95-2.25,2.58v6c0,1.63.86,2.58,2.25,2.58s2.22-.95,2.22-2.58v-6C301.18,393.43,300.32,392.48,299,392.48Z"/><path class="cls-6" d="M312.18,405.64h-2.55V393.21l-2.18,1.5v-2.58l2.33-1.67h2.4Z"/><rect class="cls-1" x="220.76" y="757.28" width="153.76" height="31.16" rx="6.46"/><path class="cls-3" d="M268.75,771a1.48,1.48,0,0,0-1.48-.76c-.66,0-.95.3-.95.72s.44.77,1.48,1.07c1.8.51,2.48,1.19,2.48,2.6s-1,2.47-2.89,2.47a3.81,3.81,0,0,1-3.31-1.35l1.49-1a1.91,1.91,0,0,0,1.65.75c.77,0,1.07-.33,1.07-.72s-.33-.72-1.56-1.12c-1.68-.54-2.4-1.31-2.4-2.64s.9-2.38,2.92-2.38a3.33,3.33,0,0,1,3,1.35Z"/><path class="cls-3" d="M277.07,768.72v1.65h-2.15V777h-2v-6.62h-2.15v-1.65Z"/><path class="cls-3" d="M276.6,777l2.88-8.27h1.92l2.87,8.27h-2.12l-.44-1.41h-2.56l-.43,1.41Zm3.07-3.07h1.52l-.75-2.44Z"/><path class="cls-3" d="M289.28,777l-1.38-3.13h-1V777h-2v-8.27H288c1.9,0,3.13.87,3.13,2.6a2.22,2.22,0,0,1-1.32,2.19l1.65,3.48Zm-1.52-4.78c.8,0,1.38-.11,1.38-.89s-.58-1-1.38-1h-.89v1.84Z"/><path class="cls-3" d="M298,768.72v1.65H295.8V777h-2v-6.62h-2.15v-1.65Z"/><path class="cls-3" d="M307.93,772.61v.89c0,2.47-1.17,3.61-3.05,3.61s-3.26-1.14-3.26-3.61v-1.12c0-2.67,1.38-3.78,3.26-3.78a2.86,2.86,0,0,1,3.05,2.67H306a1.12,1.12,0,0,0-1.15-1c-.83,0-1.27.6-1.27,2v1.29c0,1.36.44,2,1.27,2S306,775,306,774.27h-1.1v-1.66Z"/><path class="cls-3" d="M308.06,777l2.88-8.27h1.92l2.88,8.27h-2.13l-.44-1.41h-2.55l-.44,1.41Zm3.07-3.07h1.52l-.75-2.44Z"/><path class="cls-3" d="M320.43,772.91l2.23-4.19h1.86V777h-1.87v-4.68l-1.7,3.32h-1.07l-1.67-3.28V777h-1.87v-8.27h1.85Z"/><path class="cls-3" d="M331.19,768.72v1.65H328v1.51h2.87v1.66H328v1.8h3.23V777H326v-8.27Z"/><rect class="cls-3" x="220.76" y="713.54" width="153.76" height="31.16" rx="6.46"/><path class="cls-6" d="M268.78,733.26l2.88-8.27h1.92l2.88,8.27h-2.13l-.44-1.41h-2.56l-.43,1.41Zm3.07-3.07h1.52l-.75-2.45Z"/><path class="cls-6" d="M277.06,733.26V725h3.08c1.88,0,3.26.92,3.26,3.53v1.2c0,2.59-1.38,3.54-3.26,3.54Zm4.35-3.54v-1.2c0-1.11-.24-1.88-1.27-1.88h-1.09v5h1.09C281.17,731.61,281.41,730.84,281.41,729.72Z"/><path class="cls-6" d="M285.88,725l1.54,5,1.56-5h2.17l-2.83,8.27h-1.78L283.71,725Z"/><path class="cls-6" d="M290.44,733.26l2.88-8.27h1.92l2.87,8.27H296l-.44-1.41H293l-.43,1.41Zm3.07-3.07H295l-.75-2.45Z"/><path class="cls-6" d="M305.24,725v8.27h-1.6l-3.05-4.58v4.58h-1.87V725h1.58l3.07,4.64V725Z"/><path class="cls-6" d="M310.92,727.54a1.12,1.12,0,0,0-1.15-1c-.83,0-1.27.6-1.27,2v1.29c0,1.3.43,2,1.27,2a1.06,1.06,0,0,0,1.15-1h1.9a2.76,2.76,0,0,1-3.05,2.67c-1.88,0-3.26-1.14-3.26-3.61v-1.29c0-2.5,1.38-3.61,3.26-3.61a2.85,2.85,0,0,1,3.05,2.67Z"/><path class="cls-6" d="M319.13,725v1.65h-3.24v1.51h2.88v1.66h-2.88v1.8h3.24v1.65H313.9V725Z"/><path class="cls-6" d="M320.15,733.26V725h3.08c1.89,0,3.27.92,3.27,3.53v1.2c0,2.59-1.38,3.54-3.27,3.54Zm4.35-3.54v-1.2c0-1.11-.24-1.88-1.27-1.88h-1.09v5h1.09C324.26,731.61,324.5,730.84,324.5,729.72Z"/><rect class="cls-3" x="220.76" y="669.81" width="153.76" height="31.16" rx="6.46"/><path class="cls-6" d="M249.19,683.54a1.46,1.46,0,0,0-1.47-.75c-.66,0-.95.3-.95.72s.43.77,1.48,1.07c1.8.51,2.48,1.18,2.48,2.6s-1,2.47-2.89,2.47a3.79,3.79,0,0,1-3.31-1.36l1.49-1a1.89,1.89,0,0,0,1.65.74c.77,0,1.07-.32,1.07-.72s-.34-.72-1.56-1.11c-1.68-.54-2.4-1.31-2.4-2.64s.9-2.39,2.92-2.39a3.36,3.36,0,0,1,3,1.36Z"/><path class="cls-6" d="M253.8,684.42h2.55v-3.17h2v8.28h-2v-3.45H253.8v3.45h-2v-8.28h2Z"/><path class="cls-6" d="M262.86,689.65c-1.88,0-3.26-1.14-3.26-3.61v-1.3c0-2.49,1.38-3.61,3.26-3.61s3.27,1.12,3.27,3.61V686C266.13,688.51,264.75,689.65,262.86,689.65ZM261.59,686c0,1.35.45,2,1.27,2s1.27-.6,1.27-2v-1.3c0-1.35-.44-2-1.27-2s-1.27.6-1.27,2Z"/><path class="cls-6" d="M270.45,689.53h-1.87l-1.85-8.28h2.16l.9,5,1.46-5H273l1.5,5,.9-5h2.16l-1.85,8.28h-1.88l-1.69-5.35Z"/><path class="cls-6" d="M285.57,683.81a1.13,1.13,0,0,0-1.16-1c-.82,0-1.27.6-1.27,2V686c0,1.29.43,2,1.27,2a1.06,1.06,0,0,0,1.16-1h1.89a2.76,2.76,0,0,1-3,2.68c-1.88,0-3.26-1.14-3.26-3.61v-1.3c0-2.49,1.38-3.61,3.26-3.61a2.86,2.86,0,0,1,3,2.68Z"/><path class="cls-6" d="M290.54,684.42h2.54v-3.17h2v8.28h-2v-3.45h-2.54v3.45h-2v-8.28h2Z"/><path class="cls-6" d="M301.74,681.25v1.66H298.5v1.51h2.88v1.66H298.5v1.79h3.24v1.66h-5.23v-8.28Z"/><path class="cls-6" d="M307,683.81a1.13,1.13,0,0,0-1.15-1c-.83,0-1.28.6-1.28,2V686c0,1.29.44,2,1.28,2a1.06,1.06,0,0,0,1.15-1h1.89a2.76,2.76,0,0,1-3,2.68c-1.89,0-3.27-1.14-3.27-3.61v-1.3c0-2.49,1.38-3.61,3.27-3.61a2.85,2.85,0,0,1,3,2.68Z"/><path class="cls-6" d="M314.47,689.53l-1.78-3.18-.72,1v2.2h-2v-8.28h2v3.07l2.13-3.07h2.32L314,684.6l2.88,4.93Z"/><path class="cls-6" d="M320.35,689.65c-1.88,0-3.26-1.14-3.26-3.61v-1.3c0-2.49,1.38-3.61,3.26-3.61s3.27,1.12,3.27,3.61V686C323.62,688.51,322.24,689.65,320.35,689.65ZM319.08,686c0,1.35.45,2,1.27,2s1.28-.6,1.28-2v-1.3c0-1.35-.45-2-1.28-2s-1.27.6-1.27,2Z"/><path class="cls-6" d="M331.4,681.25v4.93c0,2.45-1.42,3.47-3.26,3.47s-3.26-1-3.26-3.45v-5h2v5c0,1.21.36,1.79,1.27,1.79s1.27-.58,1.27-1.79v-5Z"/><path class="cls-6" d="M338.56,681.25v1.66H336.4v6.62h-2v-6.62h-2.16v-1.66Z"/><path class="cls-6" d="M345.61,683.68c0,1.08-.51,1.76-1.86,1.76a1.6,1.6,0,0,1-1.83-1.76v-.81a1.6,1.6,0,0,1,1.83-1.74c1.23,0,1.86.57,1.86,1.74Zm3.89-2.43-4.62,8.28h-1.72l4.62-8.28Zm-5.36,2.43v-.77c0-.45-.12-.56-.37-.56s-.36.11-.36.56v.77c0,.44.12.56.36.56S344.14,684.12,344.14,683.68Zm6.61,4.21c0,1.08-.52,1.76-1.86,1.76a1.6,1.6,0,0,1-1.84-1.76v-.81c0-1.16.65-1.74,1.84-1.74s1.86.57,1.86,1.74Zm-1.48,0v-.77c0-.45-.12-.57-.37-.57s-.36.12-.36.57v.77c0,.44.12.56.36.56S349.27,688.33,349.27,687.89Z"/></svg>