<svg id="Ebene_1" data-name="Ebene 1" xmlns="http://www.w3.org/2000/svg" viewBox="0 0 595.28 841.89"><defs><style>.cls-1{fill:#1d1d1b;stroke:#000;stroke-miterlimit:10;stroke-width:0.28px;}.cls-2{fill:#f5be46;}.cls-3{fill:#cc2a1d;}.cls-4{fill:#010101;}</style></defs><title>Zeichenfläche 4</title><path class="cls-1" d="M242.66,282.85V266.53h6.09c3.71,0,6.43,1.82,6.43,7v2.37c0,5.11-2.72,7-6.43,7Zm8.59-7V273.5c0-2.2-.47-3.71-2.5-3.71h-2.16v9.8h2.16C250.78,279.59,251.25,278.07,251.25,275.87Z"/><path class="cls-1" d="M255.3,282.85,261,266.53h3.78l5.68,16.32h-4.19l-.87-2.79h-5l-.85,2.79Zm6.06-6.06h3L262.87,272Z"/><path class="cls-1" d="M280.31,282.85l-2.72-6.17h-2v6.17h-3.93V266.53h6.16c3.76,0,6.17,1.72,6.17,5.13a4.4,4.4,0,0,1-2.6,4.33l3.26,6.86Zm-3-9.44c1.59,0,2.72-.21,2.72-1.75s-1.13-1.87-2.72-1.87h-1.75v3.62Z"/><path class="cls-1" d="M297.41,266.53v3.26h-4.26v13.06h-3.92V269.79H285v-3.26Z"/><path class="cls-1" d="M307.56,271a2.9,2.9,0,0,0-2.91-1.49c-1.3,0-1.87.6-1.87,1.42s.86,1.52,2.91,2.11c3.55,1,4.9,2.34,4.9,5.13,0,3-2,4.88-5.7,4.88-3,0-5-.74-6.53-2.68l2.93-2.05a3.81,3.81,0,0,0,3.27,1.46c1.51,0,2.1-.64,2.1-1.42,0-.94-.66-1.42-3.07-2.2-3.31-1.06-4.73-2.58-4.73-5.2s1.77-4.71,5.75-4.71c2.6,0,4.7.87,5.86,2.67Z"/><path class="cls-1" d="M324.81,274.22V276c0,4.87-2.29,7.12-6,7.12s-6.43-2.25-6.43-7.12v-2.23c0-5.25,2.72-7.45,6.43-7.45,3.55,0,5.54,2.08,6,5.27h-3.74a2.22,2.22,0,0,0-2.27-2c-1.63,0-2.51,1.19-2.51,3.86V276c0,2.67.88,3.85,2.51,3.85s2.11-1,2.25-2.34h-2.18v-3.26Z"/><path class="cls-1" d="M337.61,266.53v3.26h-6.39v3h5.68V276h-5.68v3.55h6.39v3.26H327.29V266.53Z"/><path class="cls-1" d="M348.31,282.85l-2.73-6.17h-2v6.17h-3.93V266.53h6.15c3.77,0,6.18,1.72,6.18,5.13a4.4,4.4,0,0,1-2.6,4.33l3.26,6.86Zm-3-9.44c1.58,0,2.72-.21,2.72-1.75s-1.14-1.87-2.72-1.87h-1.75v3.62Z"/><path class="cls-2" d="M342.12,195.34l-38.25,34.88,0-75.34L334.1,134a6.46,6.46,0,0,1,10.13,5.32v51.24A6.45,6.45,0,0,1,342.12,195.34Z"/><path d="M253.15,195.34l38.26,34.88,0-75.34L261.17,134a6.45,6.45,0,0,0-10.12,5.32v51.24A6.44,6.44,0,0,0,253.15,195.34Z"/><rect class="cls-3" x="291.42" y="154.87" width="12.43" height="75.36"/><path class="cls-3" d="M303.85,230.22l-1.84,1.7a6.46,6.46,0,0,1-8.74,0l-1.85-1.7"/><circle class="cls-4" cx="297.8" cy="442.04" r="6.79"/><path class="cls-4" d="M283.49,460.7v-5.47l9.32-1.61,4.83,7.4,4.82-7.4,9.33,1.61v5.47S298.92,473.56,283.49,460.7Z"/><polygon points="300.95 629.28 283.24 646.88 290.65 654.37 308.39 636.82 300.95 629.28"/><polyline points="281.23 648.94 288.57 656.34 281.14 656.62"/><path d="M303.38,626.27H314a0,0,0,0,1,0,0v4.93a.68.68,0,0,1-.68.68h-9.23a.68.68,0,0,1-.68-.68v-4.93A0,0,0,0,1,303.38,626.27Z" transform="translate(85 1293.13) rotate(-135.25)"/><path d="M283.69,709.56h3.6V711H282v-8.56h1.73Z"/><path d="M290.9,711.13c-1.92,0-3.28-1.16-3.28-3.78v-1.22c0-2.64,1.36-3.78,3.28-3.78s3.29,1.14,3.29,3.78v1.22C294.19,710,292.84,711.13,290.9,711.13Zm-1.54-3.78c0,1.64.54,2.32,1.54,2.32s1.55-.68,1.55-2.32v-1.22c0-1.64-.54-2.32-1.55-2.32s-1.54.68-1.54,2.32Z"/><path d="M301.78,706.57v.78c0,2.62-1.21,3.78-3.15,3.78s-3.28-1.16-3.28-3.78v-1.09c0-2.77,1.36-3.91,3.28-3.91a2.94,2.94,0,0,1,3.14,2.76h-1.66a1.42,1.42,0,0,0-1.48-1.3c-1,0-1.54.68-1.54,2.32v1.22c0,1.64.53,2.32,1.54,2.32s1.38-.61,1.48-1.64h-1.44v-1.46Z"/><path d="M305.07,711h-1.74v-8.56h1.74Z"/><path d="M313.32,702.46V711h-1.45l-3.34-5.3V711h-1.65v-8.56h1.44l3.35,5.37v-5.37Z"/><path d="M280.22,514.14a1.76,1.76,0,0,0-1.69-.87c-.79,0-1.21.36-1.21,1s.55,1,1.69,1.25c1.79.45,2.59,1.12,2.59,2.63s-.94,2.5-3,2.5a3.76,3.76,0,0,1-3.3-1.41l1.33-.91a2.14,2.14,0,0,0,1.86.85c1,0,1.33-.43,1.33-1s-.36-.93-1.75-1.29c-1.69-.45-2.53-1.26-2.53-2.67s.89-2.41,2.92-2.41a3.34,3.34,0,0,1,3,1.4Z"/><path d="M284.75,520.49H283v-8.57h1.73Z"/><path d="M292.73,516v.78c0,2.62-1.21,3.79-3.15,3.79s-3.28-1.17-3.28-3.79v-1.09c0-2.77,1.36-3.91,3.28-3.91a2.94,2.94,0,0,1,3.14,2.77h-1.66a1.43,1.43,0,0,0-1.48-1.31c-1,0-1.54.69-1.54,2.33v1.21c0,1.64.53,2.32,1.54,2.32s1.38-.61,1.48-1.64h-1.44V516Z"/><path d="M300.6,511.92v8.57h-1.45l-3.34-5.3v5.3h-1.65v-8.57h1.44L299,517.3v-5.38Z"/><path d="M312,511.92V517c0,2.53-1.39,3.59-3.29,3.59s-3.28-1.06-3.28-3.58v-5.1h1.73V517c0,1.47.49,2.11,1.55,2.11s1.56-.64,1.56-2.11v-5.1Z"/><path d="M315.4,517.47v3h-1.74v-8.57h3.06c2,0,3.21.91,3.21,2.74s-1.22,2.81-3.21,2.81Zm1.08-1.47c1.2,0,1.71-.42,1.71-1.34s-.51-1.26-1.71-1.26H315.4V516Z"/><rect x="210.28" y="536.45" width="174.72" height="5.95" rx="2.98"/><rect x="210.28" y="726.87" width="174.72" height="5.95" rx="2.98"/></svg>