<svg id="Ebene_1" data-name="Ebene 1" xmlns="http://www.w3.org/2000/svg" viewBox="0 0 595.28 841.89"><defs><style>.cls-1,.cls-4,.cls-5{fill:#1d1d1b;}.cls-2{fill:#fff;}.cls-3{fill:#010101;}.cls-4{stroke:#1d1d1b;stroke-width:0.28px;}.cls-4,.cls-5{stroke-miterlimit:10;}.cls-5{stroke:#000;stroke-width:0.12px;}.cls-6{fill:#f5be46;}.cls-7{fill:#cc2a1d;}</style></defs><title>Zeichenfläche 5</title><circle class="cls-1" cx="297.64" cy="791.34" r="25.84"/><path class="cls-2" d="M297.64,803.08c-3.82,0-7.2-2.25-7.2-7v-9.45c0-4.88,3.38-7,7.2-7s7.2,2.16,7.2,7v9.49C304.84,800.83,301.45,803.08,297.64,803.08Zm0-20.14c-2.09,0-3.39,1.43-3.39,3.88v9c0,2.46,1.3,3.88,3.39,3.88s3.35-1.42,3.35-3.88v-9C301,784.37,299.69,782.94,297.64,782.94Z"/><polyline class="cls-3" points="437.63 773.6 419.94 791.38 437.71 809.07"/><polygon class="cls-3" points="151.15 785.37 160.72 794.62 180.84 774.65 187.38 781.23 160.72 808.02 144.44 791.76 151.15 785.37"/><circle class="cls-1" cx="429.02" cy="534.36" r="25.84"/><path class="cls-2" d="M426.83,532.34h1.59c2.39,0,3.68-1.26,3.68-3.42a3,3,0,0,0-3.25-3,3.1,3.1,0,0,0-3.25,2.82h-3.52c.1-3.68,3.22-6.1,6.9-6.1,4,0,6.94,2.75,6.94,6.2a5.59,5.59,0,0,1-3.25,5.11,5.72,5.72,0,0,1,3.58,5.54c0,3.62-2.59,6.64-7,6.64-4.64,0-7.27-2.65-7.46-6.27h3.51c.27,1.66,1.43,2.92,3.78,2.92a3.25,3.25,0,0,0,3.36-3.39c0-2.32-1.36-3.71-4-3.71h-1.59Z"/><circle class="cls-1" cx="166.26" cy="534.55" r="25.84"/><path class="cls-2" d="M169.82,546H166V527.25l-3.29,2.26v-3.89l3.52-2.52h3.61Z"/><circle class="cls-1" cx="297.64" cy="534.62" r="25.84"/><path class="cls-2" d="M304.47,546.22H290.64V543.5l7.86-9.23c1.49-1.72,2.32-3.22,2.32-4.81a3.25,3.25,0,0,0-6.5,0H290.8c0-3.88,3.12-6.44,6.9-6.44s6.94,2.66,6.94,6.51c0,2.88-2,5.14-3.45,6.9l-5.41,6.47h8.69Z"/><circle class="cls-1" cx="166" cy="620.18" r="25.84"/><path class="cls-2" d="M170,608.74l-7.33,16.09h5.37v-6.24h3.85v6.24H174v3.35h-2.09v3.45h-3.85v-3.45H158v-2.72l7.93-16.72Z"/><circle class="cls-1" cx="297.32" cy="620.18" r="25.84"/><path class="cls-2" d="M294.55,621l-3.48-.07.27-12.41,12.4.27-.07,3.62-8.66-.19-.11,4.84a4.69,4.69,0,0,1,3.55-1.25c3.81.08,6,3.08,5.86,8.39-.11,5-2.56,7.75-7.14,7.65-3.72-.08-6.59-2.47-6.84-6.13l3.78.09a3.05,3.05,0,0,0,3.06,2.68c2,0,3.22-1.22,3.28-4.24s-.82-4.83-3.08-4.88A3.08,3.08,0,0,0,294.55,621Z"/><circle class="cls-1" cx="429.27" cy="621.38" r="25.84"/><path class="cls-2" d="M428.13,619.5a5,5,0,0,1,2.19-.43c3.58,0,6.17,2.89,6.17,6.77,0,4.61-3.09,7.14-7.2,7.14s-7.24-2.49-7.24-7.07c0-1.69.83-3.75,1.86-6l4.68-10.12h4.18Zm1.16,10.12c2.09,0,3.35-1.45,3.35-3.68s-1.26-3.68-3.35-3.68-3.39,1.49-3.39,3.68S427.16,629.62,429.29,629.62Z"/><circle class="cls-1" cx="166.26" cy="705.77" r="25.84"/><path class="cls-2" d="M159.52,701.43v-7.1H173v2.95l-6.87,19.94h-4l6.9-19.54h-6.17v3.75Z"/><circle class="cls-1" cx="297.57" cy="705.77" r="25.84"/><path class="cls-2" d="M293.62,705.34a5.7,5.7,0,0,1-3.12-5c0-4,3.39-6.3,7.07-6.3s7.07,2.35,7.07,6.3a5.68,5.68,0,0,1-3.12,5,6,6,0,0,1,3.45,5.48c0,4.18-3.45,6.7-7.4,6.7s-7.4-2.52-7.4-6.7A6.11,6.11,0,0,1,293.62,705.34Zm3.95,8.86a3.6,3.6,0,0,0,0-7.2,3.6,3.6,0,0,0,0,7.2Zm0-10.32a3.25,3.25,0,1,0,0-6.5,3.25,3.25,0,1,0,0,6.5Z"/><circle class="cls-1" cx="429.02" cy="705.77" r="25.84"/><path class="cls-2" d="M430.16,707.65a4.62,4.62,0,0,1-2.19.46c-3.58,0-6.17-2.88-6.17-6.8,0-4.61,3.12-7.13,7.2-7.13s7.24,2.49,7.24,7.06c0,1.7-.83,3.75-1.86,6l-4.65,10.12h-4.18ZM429,697.53c-2.09,0-3.35,1.46-3.35,3.68s1.26,3.68,3.35,3.68,3.39-1.49,3.39-3.68S431.16,697.53,429,697.53Z"/><rect class="cls-1" x="251.33" y="398.54" width="92.66" height="46.9"/><polyline class="cls-3" points="401.09 398.16 424.91 421.99 401.09 445.81"/><polyline class="cls-3" points="194.13 398.2 170.85 421.59 194.24 444.88"/><path class="cls-2" d="M297.65,436.17c-4.6,0-8.69-2.73-8.69-8.45V416.3c0-5.89,4.09-8.49,8.69-8.49s8.7,2.6,8.7,8.45v11.46C306.35,433.44,302.26,436.17,297.65,436.17Zm0-24.31c-2.52,0-4.08,1.72-4.08,4.68v10.9c0,3,1.56,4.68,4.08,4.68s4.05-1.72,4.05-4.68v-10.9C301.7,413.58,300.14,411.86,297.65,411.86Z"/><rect class="cls-1" x="139.94" y="177.98" width="92.66" height="46.9"/><path class="cls-2" d="M186.27,215.6c-4.61,0-8.69-2.72-8.69-8.45V195.74c0-5.89,4.08-8.49,8.69-8.49s8.69,2.6,8.69,8.45v11.45C195,212.88,190.87,215.6,186.27,215.6Zm0-24.31c-2.52,0-4.09,1.72-4.09,4.69v10.89c0,3,1.57,4.69,4.09,4.69s4-1.72,4-4.69V196C190.31,193,188.75,191.29,186.27,191.29Z"/><path class="cls-2" d="M409,215.6c-4.61,0-8.69-2.72-8.69-8.45V195.74c0-5.89,4.08-8.49,8.69-8.49s8.69,2.6,8.69,8.45v11.45C417.7,212.88,413.61,215.6,409,215.6Zm0-24.31c-2.53,0-4.09,1.72-4.09,4.69v10.89c0,3,1.56,4.69,4.09,4.69s4-1.72,4-4.69V196C413.05,193,411.49,191.29,409,191.29Z"/><rect class="cls-1" x="362.68" y="177.98" width="92.66" height="46.9"/><path class="cls-2" d="M409,215.6c-4.61,0-8.69-2.72-8.69-8.45V195.74c0-5.89,4.08-8.49,8.69-8.49s8.69,2.6,8.69,8.45v11.45C417.7,212.88,413.61,215.6,409,215.6Zm0-24.31c-2.53,0-4.09,1.72-4.09,4.69v10.89c0,3,1.56,4.69,4.09,4.69s4-1.72,4-4.69V196C413.05,193,411.49,191.29,409,191.29Z"/><path class="cls-4" d="M144.56,291a1.88,1.88,0,0,0-1.82-.94c-.84,0-1.3.39-1.3,1s.59,1,1.82,1.35c1.93.48,2.8,1.21,2.8,2.84s-1,2.69-3.19,2.69a4.05,4.05,0,0,1-3.55-1.51l1.43-1a2.3,2.3,0,0,0,2,.92c1.07,0,1.44-.47,1.44-1s-.39-1-1.89-1.39c-1.82-.48-2.73-1.35-2.73-2.88s1-2.59,3.16-2.59A3.56,3.56,0,0,1,146,290Z"/><path class="cls-4" d="M153.2,288.62v1.59h-3.88v2.07h3.48v1.58h-3.48v2.41h3.88v1.58h-5.75v-9.23Z"/><path class="cls-4" d="M160.65,288.62v1.59h-2.54v7.64h-1.88v-7.64h-2.54v-1.59Z"/><path class="cls-4" d="M166.46,291a1.88,1.88,0,0,0-1.82-.94c-.84,0-1.29.39-1.29,1s.58,1,1.82,1.35c1.92.48,2.79,1.21,2.79,2.84s-1,2.69-3.18,2.69a4.07,4.07,0,0,1-3.56-1.51l1.43-1a2.33,2.33,0,0,0,2,.92c1.07,0,1.43-.47,1.43-1s-.39-1-1.89-1.39c-1.82-.48-2.73-1.35-2.73-2.88s1-2.59,3.16-2.59a3.59,3.59,0,0,1,3.24,1.51Z"/><path class="cls-4" d="M174.41,293h-1.82v-1.83h1.82Zm0,4.86h-1.82V296h1.82Z"/><path class="cls-4" d="M185.13,295a3.11,3.11,0,0,1-6.21,0v-3.58c0-2.17,1.45-2.94,3.11-2.94s3.1.77,3.1,2.93Zm-3.1-4.95c-.85,0-1.25.54-1.25,1.53v3.26c0,1,.4,1.53,1.25,1.53s1.23-.54,1.23-1.53V291.6C183.26,290.61,182.86,290.07,182,290.07Z"/><path class="cls-4" d="M141.63,317h3.88v1.58h-5.75v-9.23h1.87Z"/><path class="cls-4" d="M152.25,309.38V311h-3.88V313h3.48v1.58h-3.48V317h3.88v1.58H146.5v-9.23Z"/><path class="cls-4" d="M160.19,313.8v.85c0,2.82-1.31,4.08-3.39,4.08s-3.54-1.26-3.54-4.08v-1.18c0-3,1.46-4.21,3.54-4.21a3.16,3.16,0,0,1,3.38,3h-1.79a1.53,1.53,0,0,0-1.59-1.41c-1.09,0-1.66.74-1.66,2.51v1.31c0,1.76.57,2.5,1.66,2.5s1.48-.66,1.59-1.77h-1.55V313.8Z"/><path class="cls-4" d="M166.53,311.77a1.88,1.88,0,0,0-1.82-.94c-.84,0-1.3.39-1.3,1s.59,1,1.82,1.35c1.93.48,2.8,1.21,2.8,2.84s-1,2.69-3.18,2.69a4.07,4.07,0,0,1-3.56-1.52l1.43-1a2.29,2.29,0,0,0,2,.93c1.07,0,1.44-.47,1.44-1s-.39-1-1.89-1.39c-1.82-.48-2.73-1.35-2.73-2.88s1-2.59,3.16-2.59a3.59,3.59,0,0,1,3.24,1.51Z"/><path class="cls-4" d="M174.47,313.75h-1.82v-1.83h1.82Zm0,4.86h-1.82v-1.82h1.82Z"/><path class="cls-4" d="M185.2,315.78a3.11,3.11,0,0,1-6.21,0V312.2c0-2.17,1.45-2.94,3.1-2.94s3.11.77,3.11,2.93Zm-3.11-4.95c-.84,0-1.24.54-1.24,1.53v3.26c0,1,.4,1.53,1.24,1.53s1.24-.54,1.24-1.53v-3.26C183.33,311.37,182.92,310.83,182.09,310.83Z"/><path class="cls-4" d="M213.76,315.78a3.11,3.11,0,0,1-6.21,0V312.2c0-2.17,1.45-2.94,3.11-2.94s3.1.77,3.1,2.93Zm-3.1-4.94c-.85,0-1.25.53-1.25,1.52v3.26c0,1,.4,1.53,1.25,1.53s1.23-.54,1.23-1.53v-3.26C211.89,311.37,211.49,310.84,210.66,310.84Z"/><path class="cls-4" d="M217.16,318.61h-2.09v-2.09h2.09Z"/><path class="cls-4" d="M224.67,315.78a3.1,3.1,0,0,1-6.2,0V312.2c0-2.17,1.44-2.94,3.1-2.94s3.1.77,3.1,2.93Zm-3.1-4.94c-.84,0-1.25.53-1.25,1.52v3.26c0,1,.41,1.53,1.25,1.53s1.23-.54,1.23-1.53v-3.26C222.8,311.37,222.4,310.84,221.57,310.84Z"/><path class="cls-4" d="M231.89,315.78a3.1,3.1,0,0,1-6.2,0V312.2c0-2.17,1.44-2.94,3.1-2.94s3.1.77,3.1,2.93Zm-3.1-4.94c-.84,0-1.25.53-1.25,1.52v3.26c0,1,.41,1.53,1.25,1.53s1.23-.54,1.23-1.53v-3.26C230,311.37,229.62,310.84,228.79,310.84Z"/><path class="cls-4" d="M240.06,312a2,2,0,0,1-4,0v-.79a2,2,0,0,1,4,0Zm4.15-2.65-5.15,9.23H237.4l5.16-9.23ZM238.68,312v-.75c0-.62-.21-.85-.64-.85s-.61.25-.61.85V312c0,.57.17.84.61.84S238.68,312.6,238.68,312Zm6.95,4.69a2,2,0,0,1-4,0v-.79a2,2,0,0,1,4,0Zm-1.38,0V316c0-.61-.22-.84-.64-.84s-.62.24-.62.84v.75c0,.58.19.84.62.84S244.25,317.3,244.25,316.72Z"/><path class="cls-4" d="M213.76,295a3.11,3.11,0,0,1-6.21,0v-3.58c0-2.17,1.45-2.94,3.11-2.94s3.1.77,3.1,2.93Zm-3.1-4.95c-.85,0-1.25.54-1.25,1.53v3.26c0,1,.4,1.53,1.25,1.53s1.23-.54,1.23-1.53V291.6C211.89,290.61,211.49,290.07,210.66,290.07Z"/><path class="cls-4" d="M217.16,297.85h-2.09v-2.09h2.09Z"/><path class="cls-4" d="M224.67,295a3.1,3.1,0,0,1-6.2,0v-3.58c0-2.17,1.44-2.94,3.1-2.94s3.1.77,3.1,2.93Zm-3.1-4.95c-.84,0-1.25.54-1.25,1.53v3.26c0,1,.41,1.53,1.25,1.53s1.23-.54,1.23-1.53V291.6C222.8,290.61,222.4,290.07,221.57,290.07Z"/><path class="cls-4" d="M231.89,295a3.1,3.1,0,0,1-6.2,0v-3.58c0-2.17,1.44-2.94,3.1-2.94s3.1.77,3.1,2.93Zm-3.1-4.95c-.84,0-1.25.54-1.25,1.53v3.26c0,1,.41,1.53,1.25,1.53s1.23-.54,1.23-1.53V291.6C230,290.61,229.62,290.07,228.79,290.07Z"/><path class="cls-4" d="M366.89,291a1.88,1.88,0,0,0-1.82-.94c-.84,0-1.29.39-1.29,1s.58,1,1.82,1.35c1.92.48,2.79,1.21,2.79,2.84s-1,2.69-3.18,2.69a4.05,4.05,0,0,1-3.56-1.52l1.43-1a2.31,2.31,0,0,0,2,.93c1.07,0,1.43-.47,1.43-1s-.39-1-1.89-1.39c-1.82-.48-2.73-1.35-2.73-2.88s1-2.59,3.16-2.59A3.59,3.59,0,0,1,368.3,290Z"/><path class="cls-4" d="M375.53,288.62v1.59h-3.88v2.07h3.48v1.58h-3.48v2.41h3.88v1.58h-5.75v-9.23Z"/><path class="cls-4" d="M383,288.62v1.59h-2.54v7.64h-1.87v-7.64H376v-1.59Z"/><path class="cls-4" d="M388.8,291a1.89,1.89,0,0,0-1.82-.94c-.85,0-1.3.39-1.3,1s.59,1,1.82,1.35c1.92.48,2.79,1.21,2.79,2.84s-1,2.69-3.18,2.69a4.05,4.05,0,0,1-3.56-1.52l1.43-1a2.31,2.31,0,0,0,2,.93c1.07,0,1.43-.47,1.43-1s-.39-1-1.88-1.39c-1.82-.48-2.73-1.35-2.73-2.88s1-2.59,3.15-2.59A3.57,3.57,0,0,1,390.2,290Z"/><path class="cls-4" d="M396.74,293h-1.82v-1.83h1.82Zm0,4.86h-1.82V296h1.82Z"/><path class="cls-4" d="M407.46,295a3.1,3.1,0,0,1-6.2,0v-3.58c0-2.17,1.44-2.94,3.1-2.94s3.1.77,3.1,2.93Zm-3.1-4.95c-.84,0-1.24.54-1.24,1.53v3.26c0,1,.4,1.53,1.24,1.53s1.23-.54,1.23-1.53V291.6C405.59,290.61,405.19,290.07,404.36,290.07Z"/><path class="cls-4" d="M364,317h3.88v1.58h-5.75v-9.23H364Z"/><path class="cls-4" d="M374.58,309.38V311H370.7V313h3.48v1.58H370.7V317h3.88v1.58h-5.75v-9.23Z"/><path class="cls-4" d="M382.53,313.8v.85c0,2.82-1.31,4.08-3.4,4.08s-3.53-1.26-3.53-4.08v-1.18c0-3,1.46-4.21,3.53-4.21a3.16,3.16,0,0,1,3.38,3h-1.79a1.53,1.53,0,0,0-1.59-1.41c-1.08,0-1.66.74-1.66,2.51v1.31c0,1.76.58,2.5,1.66,2.5s1.48-.66,1.59-1.77h-1.55V313.8Z"/><path class="cls-4" d="M388.86,311.77a1.88,1.88,0,0,0-1.82-.94c-.84,0-1.29.39-1.29,1s.59,1,1.82,1.35c1.92.48,2.79,1.21,2.79,2.84s-1,2.69-3.18,2.69a4.07,4.07,0,0,1-3.56-1.51l1.43-1a2.33,2.33,0,0,0,2,.92c1.07,0,1.43-.47,1.43-1s-.39-1-1.89-1.39c-1.82-.48-2.73-1.35-2.73-2.88s1-2.59,3.16-2.59a3.59,3.59,0,0,1,3.24,1.51Z"/><path class="cls-4" d="M396.81,313.75H395v-1.83h1.82Zm0,4.86H395v-1.82h1.82Z"/><path class="cls-4" d="M407.53,315.78a3.1,3.1,0,0,1-6.2,0V312.2c0-2.17,1.44-2.94,3.1-2.94s3.1.77,3.1,2.93Zm-3.1-4.95c-.84,0-1.25.54-1.25,1.53v3.26c0,1,.41,1.53,1.25,1.53s1.23-.54,1.23-1.53v-3.26C405.66,311.37,405.26,310.83,404.43,310.83Z"/><path class="cls-4" d="M436.09,315.78a3.1,3.1,0,0,1-6.2,0V312.2c0-2.17,1.44-2.94,3.1-2.94s3.1.77,3.1,2.93Zm-3.1-4.94c-.84,0-1.24.53-1.24,1.52v3.26c0,1,.4,1.53,1.24,1.53s1.23-.54,1.23-1.53v-3.26C434.22,311.37,433.82,310.84,433,310.84Z"/><path class="cls-4" d="M439.49,318.61H437.4v-2.09h2.09Z"/><path class="cls-4" d="M447,315.78a3.11,3.11,0,0,1-6.21,0V312.2c0-2.17,1.44-2.94,3.1-2.94s3.11.77,3.11,2.93Zm-3.11-4.94c-.84,0-1.24.53-1.24,1.52v3.26c0,1,.4,1.53,1.24,1.53s1.23-.54,1.23-1.53v-3.26C445.13,311.37,444.73,310.84,443.9,310.84Z"/><path class="cls-4" d="M454.23,315.78a3.11,3.11,0,0,1-6.21,0V312.2c0-2.17,1.44-2.94,3.1-2.94s3.11.77,3.11,2.93Zm-3.11-4.94c-.84,0-1.24.53-1.24,1.52v3.26c0,1,.4,1.53,1.24,1.53s1.23-.54,1.23-1.53v-3.26C452.35,311.37,452,310.84,451.12,310.84Z"/><path class="cls-4" d="M462.4,312a2,2,0,0,1-4,0v-.79a2,2,0,0,1,4,0Zm4.14-2.65-5.15,9.23h-1.66l5.17-9.23ZM461,312v-.75c0-.62-.22-.85-.64-.85s-.62.25-.62.85V312c0,.57.17.84.62.84S461,312.6,461,312Zm6.94,4.69a2,2,0,0,1-4,0v-.79a2,2,0,0,1,4,0Zm-1.38,0V316c0-.61-.21-.84-.64-.84s-.62.24-.62.84v.75c0,.58.19.84.62.84S466.58,317.3,466.58,316.72Z"/><path class="cls-4" d="M436.09,295a3.1,3.1,0,0,1-6.2,0v-3.58c0-2.17,1.44-2.94,3.1-2.94s3.1.77,3.1,2.92Zm-3.1-4.95c-.84,0-1.24.54-1.24,1.53v3.26c0,1,.4,1.53,1.24,1.53s1.23-.54,1.23-1.53V291.6C434.22,290.61,433.82,290.07,433,290.07Z"/><path class="cls-4" d="M439.49,297.85H437.4v-2.09h2.09Z"/><path class="cls-4" d="M447,295a3.11,3.11,0,0,1-6.21,0v-3.58c0-2.17,1.44-2.94,3.1-2.94s3.11.77,3.11,2.92Zm-3.11-4.95c-.84,0-1.24.54-1.24,1.53v3.26c0,1,.4,1.53,1.24,1.53s1.23-.54,1.23-1.53V291.6C445.13,290.61,444.73,290.07,443.9,290.07Z"/><path class="cls-4" d="M454.23,295a3.11,3.11,0,0,1-6.21,0v-3.58c0-2.17,1.44-2.94,3.1-2.94s3.11.77,3.11,2.92Zm-3.11-4.95c-.84,0-1.24.54-1.24,1.53v3.26c0,1,.4,1.53,1.24,1.53s1.23-.54,1.23-1.53V291.6C452.35,290.61,452,290.07,451.12,290.07Z"/><circle class="cls-3" cx="186.77" cy="39.3" r="10.02"/><path class="cls-3" d="M165.65,66.84V58.77l13.76-2.37,7.12,10.91,7.12-10.91,13.76,2.37v8.07S188.43,85.82,165.65,66.84Z"/><circle class="cls-3" cx="408.98" cy="39.3" r="10.02"/><path class="cls-3" d="M387.86,66.84V58.77l13.76-2.37,7.12,10.91,7.12-10.91,13.77,2.37v8.07S410.64,85.82,387.86,66.84Z"/><path class="cls-5" d="M275.63,78.8V72.05h2.51c1.54,0,2.67.75,2.67,2.88v1c0,2.12-1.13,2.89-2.67,2.89Zm3.55-2.89v-1c0-.91-.19-1.53-1-1.53h-.89v4h.89C279,77.45,279.18,76.82,279.18,75.91Z"/><path class="cls-5" d="M280.85,78.8l2.35-6.75h1.57l2.35,6.75h-1.74L285,77.64h-2.08l-.35,1.16Zm2.51-2.51h1.24l-.61-2Z"/><path class="cls-5" d="M291.2,78.8l-1.13-2.55h-.84V78.8h-1.62V72.05h2.54c1.55,0,2.55.71,2.55,2.12A1.82,1.82,0,0,1,291.63,76L293,78.8ZM290,74.9c.66,0,1.13-.09,1.13-.73s-.47-.77-1.13-.77h-.72v1.5Z"/><path class="cls-5" d="M298.27,72.05V73.4h-1.76v5.4h-1.63V73.4h-1.76V72.05Z"/><path class="cls-5" d="M302.47,73.92a1.21,1.21,0,0,0-1.21-.62c-.53,0-.77.25-.77.59s.35.62,1.2.87c1.47.42,2,1,2,2.12s-.82,2-2.36,2a3.12,3.12,0,0,1-2.7-1.11l1.21-.85a1.58,1.58,0,0,0,1.35.61c.63,0,.87-.27.87-.59s-.27-.59-1.27-.91c-1.37-.44-1.95-1.07-1.95-2.15s.73-2,2.37-2a2.72,2.72,0,0,1,2.43,1.11Z"/><path class="cls-5" d="M309.6,75.23V76c0,2-1,3-2.49,3s-2.66-.93-2.66-3V75c0-2.17,1.13-3.08,2.66-3.08a2.34,2.34,0,0,1,2.49,2.18h-1.55a.92.92,0,0,0-.94-.83c-.67,0-1,.49-1,1.6v1c0,1.11.36,1.6,1,1.6s.87-.41.93-1h-.9V75.23Z"/><path class="cls-5" d="M314.89,72.05V73.4h-2.64v1.23h2.35V76h-2.35v1.47h2.64V78.8h-4.26V72.05Z"/><path class="cls-5" d="M319.31,78.8l-1.12-2.55h-.84V78.8h-1.63V72.05h2.55c1.55,0,2.55.71,2.55,2.12A1.81,1.81,0,0,1,319.74,76l1.35,2.84Zm-1.24-3.9c.66,0,1.13-.09,1.13-.73s-.47-.77-1.13-.77h-.72v1.5Z"/><path class="cls-6" d="M316.76,42.61,300.94,57V25.88l12.51-8.63a2.67,2.67,0,0,1,4.19,2.2V40.64A2.67,2.67,0,0,1,316.76,42.61Z"/><path d="M280,42.61,295.79,57V25.88l-12.52-8.63a2.67,2.67,0,0,0-4.18,2.2V40.64A2.64,2.64,0,0,0,280,42.61Z"/><rect class="cls-7" x="295.79" y="25.88" width="5.14" height="31.16"/><path class="cls-7" d="M300.93,57l-.76.7a2.66,2.66,0,0,1-3.61,0l-.77-.7"/><path class="cls-4" d="M176.44,114l3.49-6.41-3.12-6h2.74l2,4,2-4h2.72l-3.13,6,3.51,6.41h-2.72l-2.38-4.24L179.17,114Z"/><path class="cls-4" d="M189.76,101.57,192,106.2l2.23-4.63h2.9l-3.87,7.35V114h-2.52v-5.08l-3.87-7.35Z"/><path class="cls-4" d="M399.75,114l3.49-6.41-3.12-6h2.74l2,4,2-4h2.72l-3.14,6,3.52,6.41h-2.72l-2.38-4.24L402.48,114Z"/><path class="cls-4" d="M410.4,114l3.49-6.41-3.11-6h2.74l2,4,2-4h2.71l-3.13,6,3.51,6.41h-2.72l-2.37-4.24L413.14,114Z"/></svg>