<svg id="Ebene_1" data-name="Ebene 1" xmlns="http://www.w3.org/2000/svg" viewBox="0 0 595.28 841.89"><defs><style>.cls-1{fill:#1d1d1b;stroke:#000;stroke-miterlimit:10;stroke-width:0.27px;}.cls-2{fill:#f5be46;}.cls-3{fill:#cc2a1d;}.cls-4{fill:#010101;}.cls-5{fill:#fff;}</style></defs><title>Zeichenfläche 2</title><path class="cls-1" d="M245.3,295.79V280.25h5.79c3.54,0,6.13,1.74,6.13,6.65v2.25c0,4.86-2.59,6.64-6.13,6.64Zm8.18-6.64V286.9c0-2.1-.45-3.54-2.39-3.54H249v9.32h2.05C253,292.68,253.48,291.24,253.48,289.15Z"/><path class="cls-1" d="M257.33,295.79l5.41-15.54h3.6l5.41,15.54h-4l-.83-2.65h-4.8l-.81,2.65ZM263.1,290H266l-1.42-4.6Z"/><path class="cls-1" d="M281.14,295.79l-2.59-5.88h-1.94v5.88h-3.74V280.25h5.86c3.58,0,5.88,1.65,5.88,4.89a4.17,4.17,0,0,1-2.48,4.12l3.11,6.53Zm-2.86-9c1.51,0,2.59-.21,2.59-1.67s-1.08-1.78-2.59-1.78h-1.67v3.45Z"/><path class="cls-1" d="M297.42,280.25v3.11h-4.05v12.43h-3.74V283.36h-4.05v-3.11Z"/><path class="cls-1" d="M307.09,284.55a2.77,2.77,0,0,0-2.77-1.42c-1.24,0-1.78.57-1.78,1.36s.81,1.44,2.77,2c3.38,1,4.66,2.23,4.66,4.89,0,2.81-1.89,4.64-5.43,4.64-2.84,0-4.75-.7-6.22-2.55l2.8-2a3.59,3.59,0,0,0,3.11,1.4c1.44,0,2-.61,2-1.35,0-.9-.63-1.35-2.93-2.1-3.15-1-4.5-2.45-4.5-4.95s1.69-4.48,5.47-4.48c2.48,0,4.48.83,5.59,2.54Z"/><path class="cls-1" d="M323.51,287.57v1.67c0,4.64-2.19,6.78-5.72,6.78s-6.13-2.14-6.13-6.78v-2.12c0-5,2.59-7.09,6.13-7.09,3.37,0,5.27,2,5.72,5H320a2.12,2.12,0,0,0-2.16-1.92c-1.56,0-2.39,1.13-2.39,3.68v2.43c0,2.54.83,3.67,2.39,3.67s2-1,2.14-2.23h-2.08v-3.11Z"/><path class="cls-1" d="M335.69,280.25v3.11h-6.08v2.84H335v3.11h-5.41v3.37h6.08v3.11h-9.82V280.25Z"/><path class="cls-1" d="M345.87,295.79l-2.59-5.88h-1.93v5.88h-3.74V280.25h5.85c3.59,0,5.88,1.65,5.88,4.89a4.17,4.17,0,0,1-2.48,4.12l3.11,6.53Zm-2.86-9c1.51,0,2.59-.21,2.59-1.67s-1.08-1.78-2.59-1.78h-1.66v3.45Z"/><path class="cls-2" d="M340,212.48l-36.42,33.21,0-71.73,28.81-19.87a6.15,6.15,0,0,1,9.64,5.06v48.79A6.15,6.15,0,0,1,340,212.48Z"/><path d="M255.29,212.48l36.42,33.21,0-71.73-28.82-19.87a6.15,6.15,0,0,0-9.64,5.06v48.79A6.13,6.13,0,0,0,255.29,212.48Z"/><rect class="cls-3" x="291.72" y="173.95" width="11.83" height="71.74"/><path class="cls-3" d="M303.55,245.69l-1.75,1.61a6.13,6.13,0,0,1-8.32,0l-1.76-1.61"/><circle class="cls-4" cx="180.39" cy="496.73" r="7.66"/><path class="cls-4" d="M164.25,517.78v-6.17l10.52-1.81,5.44,8.34,5.45-8.34,10.52,1.81v6.17S181.66,532.3,164.25,517.78Z"/><polygon points="184.13 571.9 164.15 591.76 172.51 600.21 192.53 580.4 184.13 571.9"/><polyline points="161.88 594.08 170.17 602.43 161.78 602.75"/><path d="M186.88,568.5h12a0,0,0,0,1,0,0v5.56a.77.77,0,0,1-.77.77H187.65a.77.77,0,0,1-.77-.77V568.5A0,0,0,0,1,186.88,568.5Z" transform="translate(-72.66 1113.41) rotate(-135.25)"/><rect class="cls-4" x="255.98" y="489.07" width="173.51" height="35.16" rx="17.58"/><rect class="cls-4" x="255.98" y="566.73" width="173.51" height="35.16" rx="17.58"/><path class="cls-5" d="M323.81,588h4.06v1.66h-6V580h2Z"/><path class="cls-5" d="M331.94,589.79c-2.17,0-3.7-1.31-3.7-4.27v-1.37c0-3,1.53-4.27,3.7-4.27s3.71,1.28,3.71,4.27v1.37C335.65,588.48,334.13,589.79,331.94,589.79Zm-1.74-4.27c0,1.85.61,2.62,1.74,2.62s1.75-.77,1.75-2.62v-1.37c0-1.85-.61-2.62-1.75-2.62s-1.74.77-1.74,2.62Z"/><path class="cls-5" d="M344.22,584.64v.88c0,3-1.37,4.27-3.56,4.27s-3.7-1.31-3.7-4.27v-1.23c0-3.13,1.53-4.41,3.7-4.41a3.32,3.32,0,0,1,3.55,3.12h-1.88a1.6,1.6,0,0,0-1.67-1.47c-1.13,0-1.73.77-1.73,2.62v1.37c0,1.85.6,2.62,1.73,2.62s1.56-.69,1.67-1.85h-1.62v-1.65Z"/><path class="cls-5" d="M347.93,589.67h-2V580h2Z"/><path class="cls-5" d="M357.24,580v9.67H355.6l-3.77-6v6H350V580h1.63l3.78,6.07V580Z"/><path class="cls-5" d="M321.8,505.78a2,2,0,0,0-1.91-1c-.88,0-1.36.4-1.36,1.06s.62,1.09,1.91,1.42c2,.5,2.93,1.26,2.93,3s-1.07,2.81-3.34,2.81a4.25,4.25,0,0,1-3.72-1.58l1.5-1a2.39,2.39,0,0,0,2.1,1c1.12,0,1.5-.49,1.5-1.08s-.41-1.05-2-1.46c-1.9-.5-2.86-1.41-2.86-3s1-2.71,3.31-2.71a3.75,3.75,0,0,1,3.39,1.58Z"/><path class="cls-5" d="M326.92,512.94h-2v-9.67h2Z"/><path class="cls-5" d="M335.92,507.91v.88c0,3-1.37,4.27-3.55,4.27s-3.7-1.31-3.7-4.27v-1.23c0-3.13,1.53-4.41,3.7-4.41a3.31,3.31,0,0,1,3.54,3.12H334a1.59,1.59,0,0,0-1.66-1.47c-1.14,0-1.74.77-1.74,2.62v1.37c0,1.85.6,2.62,1.74,2.62s1.55-.69,1.66-1.85h-1.62v-1.65Z"/><path class="cls-5" d="M344.8,503.27v9.67h-1.64l-3.77-6v6h-1.86v-9.67h1.63l3.78,6.07v-6.07Z"/><path class="cls-5" d="M357.64,503.27V509c0,2.86-1.57,4-3.71,4s-3.72-1.19-3.72-4v-5.76h2V509c0,1.65.54,2.38,1.75,2.38s1.75-.73,1.75-2.38v-5.76Z"/><path class="cls-5" d="M361.5,509.53v3.41h-2v-9.67H363c2.23,0,3.61,1,3.61,3.1s-1.37,3.16-3.61,3.16Zm1.22-1.65c1.36,0,1.93-.48,1.93-1.51s-.57-1.43-1.93-1.43H361.5v2.94Z"/></svg>