<svg id="Ebene_1" data-name="Ebene 1" xmlns="http://www.w3.org/2000/svg" viewBox="0 0 595.28 841.89"><defs><style>.cls-1{fill:#1d1d1b;stroke:#000;stroke-miterlimit:10;stroke-width:0.25px;}.cls-2{fill:#f5be46;}.cls-3{fill:#cc2a1d;}</style></defs><title>Zeichenfläche 1</title><path class="cls-1" d="M249.39,486.67V472.34h5.33c3.26,0,5.65,1.6,5.65,6.12v2.08c0,4.49-2.39,6.13-5.65,6.13Zm7.54-6.13v-2.08c0-1.93-.42-3.26-2.21-3.26h-1.89v8.6h1.89C256.51,483.8,256.93,482.47,256.93,480.54Z"/><path class="cls-1" d="M260.48,486.67l5-14.33h3.32l5,14.33h-3.68l-.77-2.45H264.9l-.75,2.45Zm5.31-5.32h2.64l-1.31-4.24Z"/><path class="cls-1" d="M282.43,486.67,280,481.25h-1.79v5.42h-3.44V472.34h5.39c3.31,0,5.42,1.51,5.42,4.5a3.87,3.87,0,0,1-2.28,3.81l2.87,6Zm-2.64-8.29c1.39,0,2.39-.19,2.39-1.54s-1-1.64-2.39-1.64h-1.54v3.18Z"/><path class="cls-1" d="M297.44,472.34v2.86H293.7v11.47h-3.44V475.2h-3.74v-2.86Z"/><path class="cls-1" d="M306.35,476.3a2.55,2.55,0,0,0-2.56-1.3c-1.14,0-1.64.52-1.64,1.24s.75,1.33,2.56,1.85c3.11.89,4.3,2.06,4.3,4.51s-1.75,4.27-5,4.27c-2.61,0-4.38-.64-5.73-2.34l2.58-1.81a3.31,3.31,0,0,0,2.86,1.29c1.33,0,1.85-.56,1.85-1.25s-.58-1.24-2.7-1.93c-2.91-.93-4.15-2.26-4.15-4.57s1.55-4.13,5-4.13c2.29,0,4.14.77,5.15,2.35Z"/><path class="cls-1" d="M321.49,479.09v1.53c0,4.28-2,6.25-5.28,6.25s-5.65-2-5.65-6.25v-1.95c0-4.61,2.39-6.54,5.65-6.54a5,5,0,0,1,5.28,4.63h-3.28a2,2,0,0,0-2-1.76c-1.43,0-2.2,1-2.2,3.38v2.24c0,2.35.77,3.39,2.2,3.39s1.85-.87,2-2.06h-1.91v-2.86Z"/><path class="cls-1" d="M332.72,472.34v2.86h-5.6v2.62h5v2.87h-5v3.11h5.6v2.87h-9.05V472.34Z"/><path class="cls-1" d="M342.11,486.67l-2.39-5.42h-1.79v5.42h-3.44V472.34h5.4c3.3,0,5.42,1.51,5.42,4.5a3.87,3.87,0,0,1-2.29,3.81l2.87,6Zm-2.64-8.29c1.39,0,2.39-.19,2.39-1.54s-1-1.64-2.39-1.64h-1.54v3.18Z"/><path class="cls-2" d="M336.68,409.86,303.1,440.48l0-66.14L329.64,356a5.67,5.67,0,0,1,8.89,4.66v45A5.65,5.65,0,0,1,336.68,409.86Z"/><path d="M258.59,409.86l33.58,30.62,0-66.14L265.63,356a5.66,5.66,0,0,0-8.88,4.66v45A5.68,5.68,0,0,0,258.59,409.86Z"/><rect class="cls-3" x="292.18" y="374.34" width="10.91" height="66.14"/><path class="cls-3" d="M303.09,440.48,301.47,442a5.65,5.65,0,0,1-7.67,0l-1.62-1.48"/><path class="cls-1" d="M266.72,599.22V584.89h5.34c3.26,0,5.64,1.6,5.64,6.13v2.07c0,4.49-2.38,6.13-5.64,6.13Zm7.54-6.13V591c0-1.94-.42-3.26-2.2-3.26h-1.89v8.59h1.89C273.84,596.35,274.26,595,274.26,593.09Z"/><path class="cls-1" d="M277.81,599.22l5-14.33h3.33l5,14.33h-3.68l-.76-2.45h-4.43l-.75,2.45Zm5.32-5.32h2.63l-1.31-4.23Z"/><path class="cls-1" d="M299.76,599.22l-2.39-5.42h-1.79v5.42h-3.44V584.89h5.4c3.3,0,5.42,1.52,5.42,4.51a3.86,3.86,0,0,1-2.29,3.8l2.87,6Zm-2.64-8.29c1.39,0,2.39-.18,2.39-1.53s-1-1.64-2.39-1.64h-1.54v3.17Z"/><path class="cls-1" d="M314.77,584.89v2.87H311v11.46h-3.44V587.76h-3.74v-2.87Z"/><path class="cls-1" d="M323.68,588.86a2.53,2.53,0,0,0-2.55-1.31c-1.14,0-1.64.52-1.64,1.24s.74,1.33,2.55,1.85c3.12.89,4.3,2.06,4.3,4.51s-1.74,4.28-5,4.28c-2.62,0-4.39-.65-5.74-2.35l2.58-1.81a3.29,3.29,0,0,0,2.86,1.29c1.33,0,1.85-.56,1.85-1.25s-.58-1.24-2.7-1.93c-2.9-.93-4.15-2.26-4.15-4.57s1.56-4.13,5-4.13c2.28,0,4.13.77,5.15,2.35Z"/><path class="cls-1" d="M338.82,591.64v1.54c0,4.27-2,6.25-5.27,6.25s-5.65-2-5.65-6.25v-2c0-4.61,2.38-6.54,5.65-6.54a5,5,0,0,1,5.27,4.63h-3.28a2,2,0,0,0-2-1.76c-1.44,0-2.21,1-2.21,3.38v2.25c0,2.34.77,3.38,2.21,3.38s1.84-.87,2-2.06h-1.91v-2.86Z"/><path class="cls-1" d="M350.05,584.89v2.87h-5.6v2.61h5v2.87h-5v3.11h5.6v2.87H341V584.89Z"/><path class="cls-1" d="M359.44,599.22l-2.39-5.42h-1.78v5.42h-3.45V584.89h5.4c3.3,0,5.42,1.52,5.42,4.51a3.86,3.86,0,0,1-2.29,3.8l2.87,6Zm-2.64-8.29c1.4,0,2.39-.18,2.39-1.53s-1-1.64-2.39-1.64h-1.53v3.17Z"/><polygon class="cls-2" points="258.43 595.16 247.01 605.58 247 584.25 258.43 576.04 258.43 595.16"/><polygon points="232.06 595.16 243.48 605.58 243.49 584.25 232.06 576.04 232.06 595.16"/><rect class="cls-3" x="243.49" y="584.24" width="3.52" height="21.33"/><polyline class="cls-3" points="247 605.58 245.24 607.19 243.49 605.58"/></svg>