<svg id="Ebene_1" data-name="Ebene 1" xmlns="http://www.w3.org/2000/svg" viewBox="0 0 595.28 841.89"><defs><style>.cls-1{fill:#1d1d1b;stroke-width:0.28px;}.cls-1,.cls-4{stroke:#000;}.cls-1,.cls-4,.cls-7{stroke-miterlimit:10;}.cls-2{fill:#f5be46;}.cls-3{fill:#cc2a1d;}.cls-4{fill:none;stroke-width:3.9px;}.cls-5,.cls-7{fill:#010101;}.cls-6{fill:#fff;}.cls-7{stroke:#010101;stroke-width:2.44px;}</style></defs><title>Zeichenfläche 11</title><path class="cls-1" d="M242.66,220.26V203.93h6.09c3.71,0,6.43,1.83,6.43,7v2.37c0,5.11-2.72,7-6.43,7Zm8.59-7v-2.37c0-2.2-.47-3.71-2.5-3.71h-2.16V217h2.16C250.78,217,251.25,215.48,251.25,213.28Z"/><path class="cls-1" d="M255.3,220.26,261,203.93h3.78l5.68,16.33h-4.19l-.87-2.79h-5l-.85,2.79Zm6.06-6.06h3l-1.49-4.82Z"/><path class="cls-1" d="M280.31,220.26l-2.72-6.18h-2v6.18h-3.93V203.93h6.16c3.76,0,6.17,1.73,6.17,5.14a4.4,4.4,0,0,1-2.6,4.33l3.26,6.86Zm-3-9.44c1.59,0,2.72-.21,2.72-1.75s-1.13-1.87-2.72-1.87h-1.75v3.62Z"/><path class="cls-1" d="M297.41,203.93v3.27h-4.26v13.06h-3.92V207.2H285v-3.27Z"/><path class="cls-1" d="M307.56,208.45a2.9,2.9,0,0,0-2.91-1.49c-1.3,0-1.87.59-1.87,1.42s.86,1.52,2.91,2.11c3.55,1,4.9,2.34,4.9,5.13,0,3-2,4.88-5.7,4.88-3,0-5-.74-6.53-2.68l2.93-2.06a3.79,3.79,0,0,0,3.27,1.47c1.51,0,2.1-.64,2.1-1.42,0-.94-.66-1.42-3.07-2.2-3.31-1.06-4.73-2.58-4.73-5.2s1.77-4.71,5.75-4.71c2.6,0,4.7.87,5.86,2.67Z"/><path class="cls-1" d="M324.81,211.62v1.75c0,4.88-2.29,7.13-6,7.13s-6.43-2.25-6.43-7.13v-2.22c0-5.25,2.72-7.45,6.43-7.45,3.55,0,5.54,2.08,6,5.27h-3.74a2.22,2.22,0,0,0-2.27-2c-1.63,0-2.51,1.19-2.51,3.86v2.55c0,2.68.88,3.86,2.51,3.86s2.11-1,2.25-2.34h-2.18v-3.27Z"/><path class="cls-1" d="M337.61,203.93v3.27h-6.39v3h5.68v3.27h-5.68V217h6.39v3.27H327.29V203.93Z"/><path class="cls-1" d="M348.31,220.26l-2.73-6.18h-2v6.18h-3.93V203.93h6.15c3.77,0,6.18,1.73,6.18,5.14a4.4,4.4,0,0,1-2.6,4.33l3.26,6.86Zm-3-9.44c1.58,0,2.72-.21,2.72-1.75s-1.14-1.87-2.72-1.87h-1.75v3.62Z"/><path class="cls-2" d="M342.12,132.75l-38.25,34.88,0-75.34L334.1,71.42a6.46,6.46,0,0,1,10.13,5.32V128A6.47,6.47,0,0,1,342.12,132.75Z"/><path d="M253.15,132.75l38.26,34.88,0-75.34L261.17,71.42a6.45,6.45,0,0,0-10.12,5.32V128A6.44,6.44,0,0,0,253.15,132.75Z"/><rect class="cls-3" x="291.42" y="92.28" width="12.43" height="75.36"/><path class="cls-3" d="M303.85,167.63l-1.84,1.7a6.46,6.46,0,0,1-8.74,0l-1.85-1.7"/><path d="M284.56,436.05h26.57a.42.42,0,0,1,.42.42v19.65a.83.83,0,0,1-.83.83H284.56a.83.83,0,0,1-.83-.83V436.88A.83.83,0,0,1,284.56,436.05Z"/><path class="cls-4" d="M304.52,433.25a6.89,6.89,0,0,0-13.76,0v5.55h13.76Z"/><rect class="cls-5" x="220.76" y="489.59" width="153.76" height="31.16" rx="6.46"/><path class="cls-6" d="M269.55,506.51v2.8h-2V501h3.11c1.91,0,3.13.84,3.13,2.69s-1.21,2.79-3.13,2.79Zm.76-1.65c1.05,0,1.5-.31,1.5-1.14,0-.67-.45-1-1.5-1h-.76v2.17Z"/><path class="cls-6" d="M273.21,509.31l2.88-8.28H278l2.87,8.28h-2.12l-.44-1.42h-2.56l-.43,1.42Zm3.07-3.07h1.52l-.75-2.45Z"/><path class="cls-6" d="M285.79,503.32a1.46,1.46,0,0,0-1.47-.75c-.66,0-.95.3-.95.72s.43.77,1.48,1.07c1.8.51,2.48,1.18,2.48,2.6s-1,2.47-2.89,2.47a3.79,3.79,0,0,1-3.31-1.36l1.49-1a1.89,1.89,0,0,0,1.65.74c.77,0,1.07-.32,1.07-.72s-.34-.72-1.56-1.11c-1.68-.54-2.4-1.31-2.4-2.64s.9-2.39,2.92-2.39a3.36,3.36,0,0,1,3,1.36Z"/><path class="cls-6" d="M292.72,503.32a1.47,1.47,0,0,0-1.48-.75c-.66,0-.94.3-.94.72s.43.77,1.47,1.07c1.8.51,2.48,1.18,2.48,2.6s-1,2.47-2.89,2.47a3.79,3.79,0,0,1-3.31-1.36l1.49-1a1.9,1.9,0,0,0,1.65.74c.77,0,1.07-.32,1.07-.72s-.33-.72-1.56-1.11c-1.68-.54-2.4-1.31-2.4-2.64s.9-2.39,2.92-2.39a3.33,3.33,0,0,1,3,1.36Z"/><path class="cls-6" d="M298.39,509.31h-1.87L294.68,501h2.16l.89,4.94L299.2,501h1.74l1.5,5,.9-5h2.15l-1.84,8.28h-1.89L300.07,504Z"/><path class="cls-6" d="M309.36,509.43c-1.88,0-3.26-1.14-3.26-3.61v-1.3c0-2.49,1.38-3.61,3.26-3.61s3.26,1.12,3.26,3.61v1.3C312.62,508.29,311.24,509.43,309.36,509.43Zm-1.27-3.61c0,1.35.44,1.95,1.27,1.95s1.27-.6,1.27-1.95v-1.3c0-1.35-.44-1.95-1.27-1.95s-1.27.6-1.27,1.95Z"/><path class="cls-6" d="M318.29,509.31l-1.38-3.13h-1v3.13h-2V501H317c1.91,0,3.13.88,3.13,2.61a2.22,2.22,0,0,1-1.31,2.19l1.65,3.48Zm-1.53-4.79c.81,0,1.38-.1,1.38-.88s-.57-.95-1.38-.95h-.88v1.83Z"/><path class="cls-6" d="M321.38,509.31V501h3.08c1.88,0,3.26.93,3.26,3.54v1.2c0,2.59-1.38,3.54-3.26,3.54Zm4.35-3.54v-1.2c0-1.11-.24-1.88-1.27-1.88h-1.09v5h1.09C325.49,507.65,325.73,506.89,325.73,505.77Z"/><path class="cls-7" d="M287.9,311a9.74,9.74,0,1,0,19.48,0V300.76a9.74,9.74,0,0,0-19.48,0Z"/><rect class="cls-6" x="296.01" y="298.05" width="3.25" height="7.03" rx="1.62"/><rect class="cls-5" x="220.76" y="354.64" width="153.76" height="31.16" rx="6.46"/><path class="cls-6" d="M253.25,366.11V371c0,2.45-1.42,3.47-3.26,3.47s-3.26-1-3.26-3.45v-4.95h2v4.95c0,1.21.36,1.79,1.27,1.79s1.27-.58,1.27-1.79v-4.95Z"/><path class="cls-6" d="M259,368.41a1.45,1.45,0,0,0-1.47-.76c-.66,0-.95.3-.95.72s.43.77,1.48,1.07c1.8.51,2.48,1.18,2.48,2.6s-1,2.47-2.89,2.47a3.79,3.79,0,0,1-3.31-1.36l1.48-1a1.92,1.92,0,0,0,1.66.74c.77,0,1.07-.32,1.07-.72s-.34-.71-1.56-1.11c-1.68-.54-2.4-1.31-2.4-2.64s.9-2.39,2.91-2.39a3.36,3.36,0,0,1,3,1.36Z"/><path class="cls-6" d="M266.85,366.11v1.66h-3.24v1.51h2.88v1.66h-2.88v1.79h3.24v1.66h-5.23v-8.28Z"/><path class="cls-6" d="M272.28,374.39l-1.38-3.13h-1v3.13h-2v-8.28H271c1.91,0,3.13.88,3.13,2.61a2.22,2.22,0,0,1-1.32,2.19l1.66,3.48Zm-1.53-4.79c.81,0,1.38-.1,1.38-.88s-.57-1-1.38-1h-.89v1.83Z"/><path class="cls-6" d="M281.89,366.11v8.28h-1.61l-3-4.58v4.58h-1.87v-8.28h1.58l3.08,4.65v-4.65Z"/><path class="cls-6" d="M282.49,374.39l2.88-8.28h1.92l2.88,8.28H288L287.6,373H285l-.43,1.42Zm3.07-3.07h1.52l-.75-2.45Z"/><path class="cls-6" d="M294.86,370.31l2.23-4.2H299v8.28h-1.87v-4.68L295.37,373h-1.06l-1.67-3.27v4.64h-1.87v-8.28h1.85Z"/><path class="cls-6" d="M305.62,366.11v1.66h-3.24v1.51h2.88v1.66h-2.88v1.79h3.24v1.66h-5.23v-8.28Z"/><path class="cls-6" d="M311.67,375.78h-1.73V364.65h1.73Z"/><path class="cls-6" d="M321.56,366.11v1.66h-3.24v1.51h2.88v1.66h-2.88v1.79h3.24v1.66h-5.23v-8.28Z"/><path class="cls-6" d="M326.67,370.31l2.23-4.2h1.86v8.28h-1.87v-4.68l-1.7,3.31h-1.07l-1.67-3.27v4.64h-1.87v-8.28h1.85Z"/><path class="cls-6" d="M331.36,374.39l2.88-8.28h1.92l2.88,8.28h-2.12l-.45-1.42h-2.55l-.43,1.42Zm3.08-3.07H336l-.76-2.45Z"/><path class="cls-6" d="M341.75,374.39h-2v-8.28h2Z"/><path class="cls-6" d="M345.31,372.73h3.24v1.66h-5.23v-8.28h2Z"/><polygon points="300.95 566.2 283.24 583.8 290.65 591.29 308.39 573.74 300.95 566.2"/><polyline points="281.23 585.85 288.57 593.25 281.14 593.53"/><path d="M303.38,563.18H314a0,0,0,0,1,0,0v4.93a.68.68,0,0,1-.68.68h-9.23a.68.68,0,0,1-.68-.68v-4.93A0,0,0,0,1,303.38,563.18Z" transform="translate(129.41 1185.25) rotate(-135.25)"/><rect class="cls-5" x="220.76" y="625.61" width="153.76" height="31.16" rx="6.46"/><path class="cls-6" d="M283.69,644.47h3.6v1.47H282v-8.57h1.73Z"/><path class="cls-6" d="M290.9,646.05c-1.92,0-3.28-1.17-3.28-3.79v-1.21c0-2.65,1.36-3.79,3.28-3.79s3.29,1.14,3.29,3.79v1.21C294.19,644.88,292.84,646.05,290.9,646.05Zm-1.54-3.79c0,1.64.54,2.33,1.54,2.33s1.55-.69,1.55-2.33v-1.21c0-1.64-.54-2.32-1.55-2.32s-1.54.68-1.54,2.32Z"/><path class="cls-6" d="M301.78,641.48v.78c0,2.62-1.21,3.79-3.15,3.79s-3.28-1.17-3.28-3.79v-1.09c0-2.77,1.36-3.91,3.28-3.91a2.94,2.94,0,0,1,3.14,2.77h-1.66a1.42,1.42,0,0,0-1.48-1.3c-1,0-1.54.68-1.54,2.32v1.21c0,1.64.53,2.33,1.54,2.33S300,644,300.11,643h-1.44v-1.47Z"/><path class="cls-6" d="M305.07,645.94h-1.74v-8.57h1.74Z"/><path class="cls-6" d="M313.32,637.37v8.57h-1.45l-3.34-5.3v5.3h-1.65v-8.57h1.44l3.35,5.38v-5.38Z"/><path class="cls-5" d="M245.35,690v1.65h-3.24v1.71H245V695h-2.88v3.26h-2V690Z"/><path class="cls-5" d="M249.39,698.38c-1.88,0-3.26-1.14-3.26-3.61v-1.29c0-2.5,1.38-3.61,3.26-3.61s3.27,1.11,3.27,3.61v1.29C252.66,697.24,251.28,698.38,249.39,698.38Zm-1.27-3.61c0,1.36.45,2,1.27,2s1.27-.6,1.27-2v-1.29c0-1.36-.44-2-1.27-2s-1.27.6-1.27,2Z"/><path class="cls-5" d="M258.32,698.26l-1.38-3.13h-1v3.13h-2V690H257c1.9,0,3.13.87,3.13,2.6a2.22,2.22,0,0,1-1.32,2.19l1.65,3.48Zm-1.52-4.78c.8,0,1.38-.11,1.38-.89s-.58-1-1.38-1h-.89v1.84Z"/><path class="cls-5" d="M267.49,693.88v.89c0,2.47-1.17,3.61-3.05,3.61s-3.26-1.14-3.26-3.61v-1.12c0-2.67,1.38-3.78,3.26-3.78a2.86,2.86,0,0,1,3.05,2.67h-1.9a1.12,1.12,0,0,0-1.15-1c-.83,0-1.27.6-1.27,2v1.29c0,1.36.44,2,1.27,2s1.07-.51,1.14-1.19h-1.1v-1.66Z"/><path class="cls-5" d="M271.83,698.38c-1.88,0-3.26-1.14-3.26-3.61v-1.29c0-2.5,1.38-3.61,3.26-3.61s3.27,1.11,3.27,3.61v1.29C275.1,697.24,273.72,698.38,271.83,698.38Zm-1.27-3.61c0,1.36.45,2,1.27,2s1.27-.6,1.27-2v-1.29c0-1.36-.44-2-1.27-2s-1.27.6-1.27,2Z"/><path class="cls-5" d="M282,690v1.65h-2.16v6.62h-2v-6.62h-2.16V690Z"/><path class="cls-5" d="M287.78,695.47v2.79h-2V690h3.12c1.91,0,3.13.84,3.13,2.68s-1.21,2.8-3.13,2.8Zm.77-1.66c1,0,1.5-.31,1.5-1.14,0-.67-.46-1-1.5-1h-.77v2.17Z"/><path class="cls-5" d="M291.44,698.26l2.88-8.27h1.92l2.88,8.27H297l-.44-1.41H294l-.43,1.41Zm3.07-3.07H296l-.76-2.44Z"/><path class="cls-5" d="M304,692.28a1.48,1.48,0,0,0-1.48-.76c-.66,0-.95.3-.95.72s.44.77,1.48,1.07c1.8.52,2.48,1.19,2.48,2.6s-1,2.47-2.89,2.47a3.81,3.81,0,0,1-3.31-1.35l1.49-1a1.91,1.91,0,0,0,1.65.75c.77,0,1.07-.33,1.07-.72s-.34-.72-1.56-1.12c-1.68-.54-2.4-1.31-2.4-2.64s.9-2.38,2.92-2.38a3.34,3.34,0,0,1,3,1.35Z"/><path class="cls-5" d="M311,692.28a1.46,1.46,0,0,0-1.47-.76c-.66,0-1,.3-1,.72s.43.77,1.47,1.07c1.8.52,2.49,1.19,2.49,2.6s-1,2.47-2.89,2.47a3.83,3.83,0,0,1-3.32-1.35l1.49-1a1.91,1.91,0,0,0,1.66.75c.76,0,1.06-.33,1.06-.72s-.33-.72-1.55-1.12c-1.68-.54-2.4-1.31-2.4-2.64s.9-2.38,2.91-2.38a3.36,3.36,0,0,1,3,1.35Z"/><path class="cls-5" d="M316.63,698.26h-1.87L312.91,690h2.16l.9,4.94,1.46-4.94h1.74l1.5,5,.9-5h2.16l-1.85,8.27H320l-1.69-5.35Z"/><path class="cls-5" d="M327.59,698.38c-1.88,0-3.26-1.14-3.26-3.61v-1.29c0-2.5,1.38-3.61,3.26-3.61s3.27,1.11,3.27,3.61v1.29C330.86,697.24,329.48,698.38,327.59,698.38Zm-1.27-3.61c0,1.36.45,2,1.27,2s1.28-.6,1.28-2v-1.29c0-1.36-.45-2-1.28-2s-1.27.6-1.27,2Z"/><path class="cls-5" d="M336.52,698.26l-1.38-3.13h-1v3.13h-2V690h3.12c1.91,0,3.13.87,3.13,2.6a2.22,2.22,0,0,1-1.32,2.19l1.65,3.48ZM335,693.48c.8,0,1.38-.11,1.38-.89s-.58-1-1.38-1h-.89v1.84Z"/><path class="cls-5" d="M339.61,698.26V690h3.08c1.88,0,3.26.92,3.26,3.54v1.19c0,2.6-1.38,3.54-3.26,3.54Zm4.35-3.54v-1.19c0-1.12-.24-1.89-1.27-1.89H341.6v5h1.09C343.72,696.61,344,695.84,344,694.72Z"/><path class="cls-5" d="M351.45,696v-.78a1.56,1.56,0,0,1,.52-1.35l.52-.5c.42-.4.68-.66.68-1.19a.65.65,0,0,0-.71-.67c-.39,0-.73.19-.73.58h-1.86c0-1.55,1.17-2.22,2.59-2.22s2.7.67,2.7,2.31A3.07,3.07,0,0,1,354,694.5l-.43.39a1,1,0,0,0-.43.77V696Zm1.78.39h-1.87v1.87h1.87Z"/></svg>