<svg id="Ebene_1" data-name="Ebene 1" xmlns="http://www.w3.org/2000/svg" viewBox="0 0 595.28 841.89"><defs><style>.cls-1{fill:#f5be46;}.cls-2{fill:#1d1d1b;}.cls-3,.cls-4{fill:#fff;}.cls-4{stroke:#fff;stroke-miterlimit:10;stroke-width:0.21px;}</style></defs><title>Zeichenfläche 18</title><rect class="cls-1" x="14.58" y="17.04" width="153.76" height="31.16" rx="6.46"/><path class="cls-2" d="M73.39,28.48v1.66H70.15v1.7H73v1.65H70.15v3.27h-2V28.48Z"/><path class="cls-2" d="M76.46,36.76h-2V28.48h2Z"/><path class="cls-2" d="M82.42,36.76,81,33.63H80v3.13H78V28.48h3.12c1.91,0,3.13.88,3.13,2.6A2.24,2.24,0,0,1,83,33.28l1.66,3.48ZM80.9,32c.8,0,1.38-.11,1.38-.89s-.58-.94-1.38-.94H80V32Z"/><path class="cls-2" d="M89.82,30.77A1.48,1.48,0,0,0,88.34,30c-.66,0-1,.3-1,.72s.43.76,1.48,1.06c1.8.52,2.48,1.19,2.48,2.61s-1,2.47-2.89,2.47a3.81,3.81,0,0,1-3.31-1.36l1.49-1a1.93,1.93,0,0,0,1.65.74c.77,0,1.07-.32,1.07-.72s-.34-.72-1.56-1.11c-1.68-.54-2.4-1.31-2.4-2.64s.9-2.39,2.92-2.39a3.32,3.32,0,0,1,3,1.36Z"/><path class="cls-2" d="M98.14,28.48v1.66H96v6.62H94V30.14H91.83V28.48Z"/><path class="cls-2" d="M107.69,28.48v1.66h-2.15v6.62h-2V30.14h-2.15V28.48Z"/><path class="cls-2" d="M111.5,36.88c-1.88,0-3.26-1.14-3.26-3.61V32c0-2.49,1.38-3.61,3.26-3.61s3.26,1.12,3.26,3.61v1.3C114.76,35.74,113.38,36.88,111.5,36.88Zm-1.27-3.61c0,1.35.44,1.95,1.27,1.95s1.27-.6,1.27-1.95V32c0-1.35-.44-1.95-1.27-1.95s-1.27.6-1.27,1.95Z"/><path class="cls-2" d="M123.38,36.76h-2V30.51l-1.19.73V29.39l1.43-.91h1.75Z"/><path class="cls-1" d="M195.29,467.08l-18.94,15.78a5.09,5.09,0,0,0,0,7.83l18.94,15.78"/><rect class="cls-2" x="253.09" y="462.49" width="90.12" height="48.57" rx="6.29"/><path class="cls-1" d="M400.16,467.08l18.94,15.78a5.1,5.1,0,0,1,0,7.83l-18.94,15.78"/><path class="cls-3" d="M298.15,500.56c-4.48,0-8.45-2.64-8.45-8.21V481.24c0-5.72,4-8.26,8.45-8.26s8.45,2.54,8.45,8.22v11.15C306.6,497.92,302.63,500.56,298.15,500.56Zm0-23.64c-2.45,0-4,1.67-4,4.56v10.59c0,2.89,1.52,4.56,4,4.56s3.94-1.67,3.94-4.56V481.48C302.09,478.59,300.57,476.92,298.15,476.92Z"/><path class="cls-1" d="M174.94,765.28l6.11,5.9a2.23,2.23,0,0,0,3.13,0L200.45,755a2.23,2.23,0,0,1,3.15,0l3.17,3.18a2.24,2.24,0,0,1,0,3.16L184.21,784a2.24,2.24,0,0,1-3.17,0l-12.49-12.48a2.23,2.23,0,0,1,0-3.2l3.25-3.1A2.23,2.23,0,0,1,174.94,765.28Z"/><rect class="cls-2" x="164.56" y="558.65" width="44.73" height="39.4" rx="5.1"/><path class="cls-3" d="M189.74,587.38h-3V572.59l-2.59,1.78V571.3l2.77-2h2.85Z"/><rect class="cls-2" x="385.98" y="558.64" width="44.73" height="39.4" rx="5.1"/><path class="cls-3" d="M406.62,576.75h1.25c1.89,0,2.91-1,2.91-2.7a2.4,2.4,0,0,0-2.56-2.38,2.45,2.45,0,0,0-2.57,2.22h-2.78c.08-2.9,2.54-4.81,5.45-4.81,3.17,0,5.47,2.17,5.47,4.89a4.4,4.4,0,0,1-2.56,4,4.54,4.54,0,0,1,2.82,4.38,5.15,5.15,0,0,1-5.52,5.23c-3.67,0-5.73-2.09-5.89-5h2.77a2.69,2.69,0,0,0,3,2.31A2.56,2.56,0,0,0,411,582.3c0-1.83-1.07-2.93-3.17-2.93h-1.25Z"/><rect class="cls-2" x="164.56" y="621.97" width="44.73" height="39.4" rx="5.1"/><path class="cls-3" d="M190.1,632.64l-5.79,12.7h4.24v-4.92h3v4.92h1.65V648h-1.65v2.72h-3V648h-7.93v-2.14l6.26-13.2Z"/><rect class="cls-2" x="385.98" y="621.97" width="44.73" height="39.4" rx="5.1"/><path class="cls-3" d="M407.44,640.19a4,4,0,0,1,1.73-.34c2.83,0,4.87,2.28,4.87,5.34,0,3.64-2.43,5.63-5.68,5.63s-5.71-2-5.71-5.57a12.76,12.76,0,0,1,1.47-4.74l3.69-8h3.3Zm.92,8a2.92,2.92,0,1,0-2.67-2.91A2.59,2.59,0,0,0,408.36,648.18Z"/><rect class="cls-2" x="164.56" y="685.25" width="44.73" height="39.4" rx="5.1"/><path class="cls-3" d="M181.62,701.52v-5.6h10.62v2.33L186.82,714h-3.16l5.44-15.43h-4.87v3Z"/><rect class="cls-2" x="385.98" y="685.25" width="44.73" height="39.4" rx="5.11"/><path class="cls-3" d="M409.25,706.43a3.6,3.6,0,0,1-1.73.37c-2.83,0-4.87-2.28-4.87-5.37a5.3,5.3,0,0,1,5.68-5.63c3.25,0,5.71,2,5.71,5.58a12.63,12.63,0,0,1-1.47,4.74l-3.66,8h-3.3Zm-.92-8a2.92,2.92,0,1,0,2.67,2.9A2.59,2.59,0,0,0,408.33,698.45Z"/><rect class="cls-2" x="275.25" y="558.65" width="44.73" height="39.4" rx="5.09"/><path class="cls-3" d="M303,587.5H292.09v-2.15l6.21-7.28a5.94,5.94,0,0,0,1.83-3.8,2.57,2.57,0,0,0-5.13,0h-2.77a5.47,5.47,0,0,1,10.91.06c0,2.27-1.57,4-2.72,5.44l-4.27,5.11H303Z"/><rect class="cls-2" x="275.25" y="621.97" width="44.73" height="39.4" rx="5.1"/><path class="cls-3" d="M295.43,642.32l-2.75-.06.22-9.79,9.79.21-.07,2.86-6.83-.15-.08,3.82a3.69,3.69,0,0,1,2.8-1c3,.07,4.71,2.43,4.62,6.62-.09,4-2,6.11-5.63,6a5.19,5.19,0,0,1-5.4-4.83l3,.07a2.4,2.4,0,0,0,2.41,2.12c1.55,0,2.54-1,2.59-3.35s-.65-3.81-2.43-3.85A2.46,2.46,0,0,0,295.43,642.32Z"/><rect class="cls-2" x="275.25" y="685.25" width="44.73" height="39.4" rx="5.09"/><path class="cls-3" d="M294.5,704.61a4.48,4.48,0,0,1-2.46-4c0-3.12,2.67-5,5.58-5s5.57,1.86,5.57,5a4.48,4.48,0,0,1-2.46,4,4.72,4.72,0,0,1,2.73,4.32c0,3.3-2.73,5.29-5.84,5.29s-5.84-2-5.84-5.29A4.82,4.82,0,0,1,294.5,704.61Zm3.12,7a2.84,2.84,0,0,0,0-5.68,2.84,2.84,0,0,0,0,5.68Zm0-8.14a2.57,2.57,0,0,0,2.56-2.59,2.57,2.57,0,1,0-2.56,2.59Z"/><rect class="cls-2" x="275.25" y="748.72" width="44.73" height="39.4" rx="5.11"/><path class="cls-3" d="M297.62,777.68c-3,0-5.68-1.78-5.68-5.52V764.7c0-3.85,2.67-5.55,5.68-5.55s5.68,1.7,5.68,5.52v7.49C303.3,775.9,300.63,777.68,297.62,777.68Zm0-15.89c-1.65,0-2.67,1.13-2.67,3.07V772c0,1.93,1,3.06,2.67,3.06s2.64-1.13,2.64-3.06v-7.12C300.26,762.92,299.24,761.79,297.62,761.79Z"/><path class="cls-1" d="M398.9,748.72l18.94,15.78a5.09,5.09,0,0,1,0,7.83L398.9,788.11"/><rect class="cls-2" x="218.38" y="115.27" width="82.38" height="44.4" rx="5.75"/><path class="cls-3" d="M259.57,150.08c-4.1,0-7.73-2.42-7.73-7.51V132.42c0-5.24,3.63-7.55,7.73-7.55s7.73,2.31,7.73,7.51v10.19C267.3,147.66,263.66,150.08,259.57,150.08Zm0-21.62c-2.24,0-3.63,1.54-3.63,4.17v9.69c0,2.63,1.39,4.16,3.63,4.16s3.6-1.53,3.6-4.16v-9.69C263.17,130,261.78,128.46,259.57,128.46Z"/><path class="cls-3" d="M259.57,259.13c-4.1,0-7.73-2.42-7.73-7.51V241.47c0-5.24,3.63-7.55,7.73-7.55s7.73,2.31,7.73,7.51v10.19C267.3,256.71,263.66,259.13,259.57,259.13Zm0-21.61c-2.24,0-3.63,1.53-3.63,4.16v9.69c0,2.63,1.39,4.17,3.63,4.17s3.6-1.54,3.6-4.17v-9.69C263.17,239.05,261.78,237.52,259.57,237.52Z"/><rect class="cls-2" x="218.38" y="224.33" width="82.38" height="44.4" rx="5.74"/><path class="cls-3" d="M259.57,259.13c-4.1,0-7.73-2.42-7.73-7.51V241.47c0-5.24,3.63-7.55,7.73-7.55s7.73,2.31,7.73,7.51v10.19C267.3,256.71,263.66,259.13,259.57,259.13Zm0-21.61c-2.24,0-3.63,1.53-3.63,4.16v9.69c0,2.63,1.39,4.17,3.63,4.17s3.6-1.54,3.6-4.17v-9.69C263.17,239.05,261.78,237.52,259.57,237.52Z"/><circle class="cls-2" cx="186.05" cy="230.22" r="5.92"/><path class="cls-2" d="M173.57,246.48v-1.55a3.83,3.83,0,0,1,3.17-3.76l5-.85,4.21,6.44,4.2-6.44,5,.85a3.83,3.83,0,0,1,3.17,3.76v1.55S187,257.7,173.57,246.48Z"/><path class="cls-2" d="M169.62,268.32v-8.15h2.9c1.84,0,3.13.94,3.13,3.54v1.07c0,2.58-1.29,3.54-3.13,3.54Zm4.38-3.54v-1.07c0-1.4-.38-2.14-1.48-2.14h-1.24v5.36h1.24C173.62,266.93,174,266.18,174,264.78Z"/><path class="cls-2" d="M175.92,268.32l2.84-8.15h1.58l2.84,8.15h-1.76l-.5-1.55h-2.73l-.5,1.55Zm2.71-2.94h1.84l-.92-2.87Z"/><path class="cls-2" d="M184.46,260.17l1.79,5.48,1.78-5.48h1.81L187,268.32h-1.5l-2.84-8.15Z"/><path class="cls-2" d="M192.45,268.32H190.8v-8.15h1.65Z"/><path class="cls-2" d="M194.18,268.32v-8.15h2.89c1.84,0,3.13.94,3.13,3.54v1.07c0,2.58-1.29,3.54-3.13,3.54Zm4.37-3.54v-1.07c0-1.4-.38-2.14-1.48-2.14h-1.24v5.36h1.24C198.17,266.93,198.55,266.18,198.55,264.78Z"/><circle class="cls-2" cx="186.04" cy="339.34" r="5.92"/><path class="cls-2" d="M173.57,355.61v-1.55a3.83,3.83,0,0,1,3.17-3.77l5-.85,4.2,6.45,4.21-6.45,5,.85a3.83,3.83,0,0,1,3.17,3.77v1.55S187,366.82,173.57,355.61Z"/><path class="cls-2" d="M169.62,377.44v-8.15h2.9c1.84,0,3.13.95,3.13,3.55v1.06c0,2.59-1.29,3.54-3.13,3.54ZM174,373.9v-1.06c0-1.41-.38-2.14-1.48-2.14h-1.24v5.35h1.24C173.62,376.05,174,375.31,174,373.9Z"/><path class="cls-2" d="M175.92,377.44l2.84-8.15h1.58l2.84,8.15h-1.76l-.5-1.54h-2.73l-.5,1.54Zm2.71-2.94h1.84l-.92-2.87Z"/><path class="cls-2" d="M184.46,369.29l1.79,5.48,1.78-5.48h1.81L187,377.44h-1.5l-2.85-8.15Z"/><path class="cls-2" d="M192.45,377.44H190.8v-8.15h1.65Z"/><path class="cls-2" d="M194.17,377.44v-8.15h2.9c1.84,0,3.13.95,3.13,3.55v1.06c0,2.59-1.29,3.54-3.13,3.54Zm4.38-3.54v-1.06c0-1.41-.38-2.14-1.48-2.14h-1.24v5.35h1.24C198.17,376.05,198.55,375.31,198.55,373.9Z"/><circle class="cls-2" cx="186.04" cy="121.09" r="5.92"/><path class="cls-2" d="M173.57,137.35V135.8a3.83,3.83,0,0,1,3.17-3.76l5-.85,4.2,6.44,4.21-6.44,5,.85a3.83,3.83,0,0,1,3.17,3.76v1.55S187,148.57,173.57,137.35Z"/><path class="cls-2" d="M169.62,159.19V151h2.9c1.84,0,3.13.94,3.13,3.54v1.07c0,2.58-1.29,3.54-3.13,3.54Zm4.38-3.54v-1.07c0-1.4-.38-2.14-1.48-2.14h-1.24v5.36h1.24C173.62,157.8,174,157.05,174,155.65Z"/><path class="cls-2" d="M175.92,159.19l2.84-8.15h1.58l2.84,8.15h-1.76l-.5-1.55h-2.73l-.5,1.55Zm2.71-2.94h1.84l-.92-2.87Z"/><path class="cls-2" d="M184.46,151l1.79,5.48L188,151h1.81L187,159.19h-1.5L182.65,151Z"/><path class="cls-2" d="M192.45,159.19H190.8V151h1.65Z"/><path class="cls-2" d="M194.17,159.19V151h2.9c1.84,0,3.13.94,3.13,3.54v1.07c0,2.58-1.29,3.54-3.13,3.54Zm4.38-3.54v-1.07c0-1.4-.38-2.14-1.48-2.14h-1.24v5.36h1.24C198.17,157.8,198.55,157.05,198.55,155.65Z"/><rect class="cls-2" x="218.38" y="333.38" width="82.38" height="44.4" rx="5.75"/><path class="cls-3" d="M259.57,368.19c-4.1,0-7.73-2.43-7.73-7.52V350.52c0-5.23,3.63-7.55,7.73-7.55s7.73,2.32,7.73,7.52v10.18C267.3,365.76,263.66,368.19,259.57,368.19Zm0-21.62c-2.24,0-3.63,1.53-3.63,4.17v9.68c0,2.64,1.39,4.17,3.63,4.17s3.6-1.53,3.6-4.17v-9.68C263.17,348.1,261.78,346.57,259.57,346.57Z"/><rect class="cls-2" x="310.94" y="115.17" width="114.71" height="44.6" rx="4.65"/><path class="cls-4" d="M333.34,127.64a1.4,1.4,0,0,0-1.35-.7c-.63,0-1,.29-1,.76s.44.78,1.35,1c1.44.36,2.09.9,2.09,2.12s-.76,2-2.37,2a3.06,3.06,0,0,1-2.66-1.12l1.07-.74a1.72,1.72,0,0,0,1.5.69c.79,0,1.06-.35,1.06-.77s-.29-.75-1.4-1c-1.36-.36-2-1-2-2.14s.72-1.94,2.36-1.94a2.67,2.67,0,0,1,2.41,1.13Z"/><path class="cls-4" d="M339.78,125.85V127h-2.89v1.55h2.59v1.17h-2.59v1.8h2.89v1.17h-4.29v-6.88Z"/><path class="cls-4" d="M345.33,125.85V127h-1.89v5.69H342V127h-1.89v-1.19Z"/><path class="cls-4" d="M349.66,127.64a1.38,1.38,0,0,0-1.35-.7c-.63,0-1,.29-1,.76s.44.78,1.36,1c1.43.36,2.08.9,2.08,2.12s-.76,2-2.37,2a3,3,0,0,1-2.65-1.12l1.06-.74a1.72,1.72,0,0,0,1.5.69c.8,0,1.07-.35,1.07-.77s-.29-.75-1.41-1c-1.36-.36-2-1-2-2.14s.71-1.94,2.35-1.94a2.66,2.66,0,0,1,2.41,1.13Z"/><path class="cls-4" d="M355.58,129.11h-1.35v-1.36h1.35Zm0,3.62h-1.35v-1.35h1.35Z"/><path class="cls-4" d="M363.58,130.63a2.32,2.32,0,0,1-4.63,0V128a2.32,2.32,0,0,1,4.63,0Zm-2.32-3.69c-.62,0-.92.4-.92,1.14v2.43c0,.74.3,1.14.92,1.14s.92-.4.92-1.14v-2.43C362.18,127.34,361.88,126.94,361.26,126.94Z"/><path class="cls-4" d="M374.69,131.56h2.89v1.17H373.3v-6.88h1.39Z"/><path class="cls-4" d="M382.61,125.85V127h-2.9v1.55h2.6v1.17h-2.6v1.8h2.9v1.17h-4.29v-6.88Z"/><path class="cls-4" d="M388.52,129.15v.63c0,2.1-1,3-2.53,3s-2.63-.94-2.63-3v-.88c0-2.22,1.09-3.14,2.63-3.14a2.37,2.37,0,0,1,2.53,2.23h-1.34a1.14,1.14,0,0,0-1.19-1c-.8,0-1.23.55-1.23,1.86v1c0,1.32.43,1.87,1.23,1.87s1.11-.49,1.19-1.32H386v-1.18Z"/><path class="cls-4" d="M393.25,127.64a1.41,1.41,0,0,0-1.36-.7c-.63,0-1,.29-1,.76s.43.78,1.35,1c1.44.36,2.08.9,2.08,2.12s-.75,2-2.37,2a3.05,3.05,0,0,1-2.65-1.12l1.07-.74a1.71,1.71,0,0,0,1.49.69c.8,0,1.07-.35,1.07-.77s-.29-.75-1.41-1c-1.35-.36-2-1-2-2.14s.72-1.94,2.35-1.94a2.68,2.68,0,0,1,2.42,1.13Z"/><path class="cls-4" d="M399.17,129.11h-1.36v-1.36h1.36Zm0,3.62h-1.36v-1.35h1.36Z"/><path class="cls-4" d="M407.16,130.63a2.31,2.31,0,0,1-4.62,0V128a2.31,2.31,0,0,1,4.62,0Zm-2.31-3.69c-.63,0-.93.4-.93,1.14v2.43c0,.74.3,1.14.93,1.14s.91-.4.91-1.14v-2.43C405.76,127.34,405.47,126.94,404.85,126.94Z"/><path class="cls-4" d="M378.28,147a2.32,2.32,0,0,1-4.63,0v-2.67a2.32,2.32,0,0,1,4.63,0ZM376,143.3c-.63,0-.93.4-.93,1.13v2.44c0,.73.3,1.13.93,1.13s.91-.4.91-1.13v-2.44C376.88,143.7,376.58,143.3,376,143.3Z"/><path class="cls-4" d="M380.81,149.09h-1.56v-1.56h1.56Z"/><path class="cls-4" d="M386.41,147a2.31,2.31,0,0,1-4.62,0v-2.67a2.31,2.31,0,0,1,4.62,0Zm-2.31-3.69c-.63,0-.93.4-.93,1.13v2.44c0,.73.3,1.13.93,1.13s.91-.4.91-1.13v-2.44C385,143.7,384.72,143.3,384.1,143.3Z"/><path class="cls-4" d="M391.79,147a2.31,2.31,0,0,1-4.62,0v-2.67a2.31,2.31,0,0,1,4.62,0Zm-2.31-3.69c-.63,0-.93.4-.93,1.13v2.44c0,.73.3,1.13.93,1.13s.92-.4.92-1.13v-2.44C390.4,143.7,390.1,143.3,389.48,143.3Z"/><path class="cls-4" d="M397.88,144.19a1.5,1.5,0,0,1-3,0v-.59a1.5,1.5,0,0,1,3,0Zm3.09-2-3.84,6.88H395.9l3.84-6.88Zm-4.12,2v-.56c0-.46-.16-.63-.48-.63s-.45.18-.45.63v.56c0,.42.13.62.45.62S396.85,144.61,396.85,144.19Zm5.18,3.49a1.5,1.5,0,1,1-3,0v-.58a1.5,1.5,0,0,1,3,0Zm-1,0v-.55c0-.46-.16-.63-.48-.63s-.46.18-.46.63v.55c0,.43.14.63.46.63S401,148.11,401,147.68Z"/><path class="cls-4" d="M339.19,147a2.31,2.31,0,0,1-4.62,0v-2.67a2.31,2.31,0,0,1,4.62,0Zm-2.31-3.69c-.63,0-.93.4-.93,1.13v2.44c0,.73.3,1.13.93,1.13s.92-.4.92-1.13v-2.44C337.8,143.7,337.5,143.3,336.88,143.3Z"/><path class="cls-4" d="M341.72,149.09h-1.55v-1.56h1.55Z"/><path class="cls-4" d="M347.32,147a2.31,2.31,0,0,1-4.62,0v-2.67a2.31,2.31,0,0,1,4.62,0ZM345,143.3c-.63,0-.93.4-.93,1.13v2.44c0,.73.3,1.13.93,1.13s.92-.4.92-1.13v-2.44C345.93,143.7,345.63,143.3,345,143.3Z"/><path class="cls-4" d="M352.71,147a2.32,2.32,0,0,1-4.63,0v-2.67a2.32,2.32,0,0,1,4.63,0Zm-2.32-3.69c-.63,0-.93.4-.93,1.13v2.44c0,.73.3,1.13.93,1.13s.92-.4.92-1.13v-2.44C351.31,143.7,351,143.3,350.39,143.3Z"/><rect class="cls-2" x="310.94" y="224.23" width="114.71" height="44.6" rx="4.65"/><path class="cls-4" d="M333.34,236.69A1.4,1.4,0,0,0,332,236c-.63,0-1,.29-1,.76s.44.78,1.35,1c1.44.36,2.09.89,2.09,2.11s-.76,2-2.37,2a3,3,0,0,1-2.66-1.12l1.07-.74a1.72,1.72,0,0,0,1.5.69c.79,0,1.06-.35,1.06-.77s-.29-.75-1.4-1c-1.36-.35-2-1-2-2.14s.72-1.93,2.36-1.93a2.69,2.69,0,0,1,2.41,1.12Z"/><path class="cls-4" d="M339.78,234.91v1.18h-2.89v1.55h2.59v1.17h-2.59v1.8h2.89v1.17h-4.29v-6.87Z"/><path class="cls-4" d="M345.33,234.91v1.18h-1.89v5.69H342v-5.69h-1.89v-1.18Z"/><path class="cls-4" d="M349.67,236.69a1.41,1.41,0,0,0-1.36-.7c-.63,0-1,.29-1,.76s.44.78,1.36,1c1.43.36,2.08.89,2.08,2.11s-.76,2-2.37,2a3,3,0,0,1-2.65-1.12l1.06-.74a1.72,1.72,0,0,0,1.5.69c.8,0,1.07-.35,1.07-.77s-.29-.75-1.41-1c-1.36-.35-2-1-2-2.14s.71-1.93,2.35-1.93a2.68,2.68,0,0,1,2.41,1.12Z"/><path class="cls-4" d="M355.58,238.17h-1.35V236.8h1.35Zm0,3.61h-1.35v-1.35h1.35Z"/><path class="cls-4" d="M363.58,239.68a2.32,2.32,0,0,1-4.63,0V237a2.32,2.32,0,0,1,4.63,0ZM361.26,236c-.62,0-.92.4-.92,1.14v2.43c0,.74.3,1.14.92,1.14s.92-.4.92-1.14v-2.43C362.18,236.39,361.88,236,361.26,236Z"/><path class="cls-4" d="M374.69,240.61h2.89v1.17H373.3v-6.87h1.39Z"/><path class="cls-4" d="M382.61,234.91v1.18h-2.89v1.55h2.59v1.17h-2.59v1.8h2.89v1.17h-4.29v-6.87Z"/><path class="cls-4" d="M388.53,238.21v.62c0,2.11-1,3-2.54,3s-2.63-.93-2.63-3V238c0-2.23,1.09-3.14,2.63-3.14a2.36,2.36,0,0,1,2.53,2.22h-1.34a1.14,1.14,0,0,0-1.19-1c-.8,0-1.23.55-1.23,1.87v1c0,1.32.43,1.87,1.23,1.87s1.11-.49,1.19-1.32H386v-1.17Z"/><path class="cls-4" d="M393.25,236.69a1.41,1.41,0,0,0-1.36-.7c-.62,0-1,.29-1,.76s.44.78,1.35,1c1.44.36,2.09.89,2.09,2.11s-.76,2-2.38,2a3,3,0,0,1-2.65-1.12l1.07-.74a1.72,1.72,0,0,0,1.49.69c.8,0,1.07-.35,1.07-.77s-.29-.75-1.41-1c-1.35-.35-2-1-2-2.14s.72-1.93,2.35-1.93a2.7,2.7,0,0,1,2.42,1.12Z"/><path class="cls-4" d="M399.17,238.17h-1.36V236.8h1.36Zm0,3.61h-1.36v-1.35h1.36Z"/><path class="cls-4" d="M407.16,239.68a2.31,2.31,0,0,1-4.62,0V237a2.31,2.31,0,0,1,4.62,0ZM404.85,236c-.63,0-.93.4-.93,1.14v2.43c0,.74.3,1.14.93,1.14s.92-.4.92-1.14v-2.43C405.77,236.39,405.47,236,404.85,236Z"/><path class="cls-4" d="M378.28,256a2.32,2.32,0,0,1-4.63,0v-2.67a2.32,2.32,0,0,1,4.63,0ZM376,252.35c-.63,0-.93.4-.93,1.14v2.43c0,.74.3,1.14.93,1.14s.91-.4.91-1.14v-2.43C376.88,252.75,376.58,252.35,376,252.35Z"/><path class="cls-4" d="M380.81,258.14h-1.56v-1.55h1.56Z"/><path class="cls-4" d="M386.41,256a2.31,2.31,0,0,1-4.62,0v-2.67a2.31,2.31,0,0,1,4.62,0Zm-2.31-3.69c-.63,0-.93.4-.93,1.14v2.43c0,.74.3,1.14.93,1.14s.92-.4.92-1.14v-2.43C385,252.75,384.72,252.35,384.1,252.35Z"/><path class="cls-4" d="M391.79,256a2.31,2.31,0,0,1-4.62,0v-2.67a2.31,2.31,0,0,1,4.62,0Zm-2.31-3.69c-.63,0-.93.4-.93,1.14v2.43c0,.74.3,1.14.93,1.14s.92-.4.92-1.14v-2.43C390.4,252.75,390.1,252.35,389.48,252.35Z"/><path class="cls-4" d="M397.88,253.24a1.5,1.5,0,0,1-3,0v-.59a1.5,1.5,0,0,1,3,0Zm3.09-2-3.84,6.88H395.9l3.85-6.88Zm-4.12,2v-.56c0-.46-.16-.63-.47-.63s-.46.18-.46.63v.56c0,.43.13.63.46.63S396.85,253.67,396.85,253.24Zm5.18,3.5a1.5,1.5,0,0,1-3,0v-.59a1.5,1.5,0,0,1,3,0Zm-1,0v-.56c0-.46-.16-.63-.48-.63s-.46.18-.46.63v.56c0,.43.14.63.46.63S401,257.17,401,256.74Z"/><path class="cls-4" d="M339.19,256a2.31,2.31,0,0,1-4.62,0v-2.67a2.31,2.31,0,0,1,4.62,0Zm-2.31-3.69c-.63,0-.93.4-.93,1.14v2.43c0,.74.3,1.14.93,1.14s.92-.4.92-1.14v-2.43C337.8,252.75,337.5,252.35,336.88,252.35Z"/><path class="cls-4" d="M341.72,258.14h-1.55v-1.55h1.55Z"/><path class="cls-4" d="M347.32,256a2.31,2.31,0,0,1-4.62,0v-2.67a2.31,2.31,0,0,1,4.62,0ZM345,252.35c-.63,0-.93.4-.93,1.14v2.43c0,.74.3,1.14.93,1.14s.92-.4.92-1.14v-2.43C345.93,252.75,345.63,252.35,345,252.35Z"/><path class="cls-4" d="M352.71,256a2.32,2.32,0,0,1-4.63,0v-2.67a2.32,2.32,0,0,1,4.63,0Zm-2.32-3.69c-.62,0-.92.4-.92,1.14v2.43c0,.74.3,1.14.92,1.14s.92-.4.92-1.14v-2.43C351.31,252.75,351,252.35,350.39,252.35Z"/><rect class="cls-2" x="310.94" y="333.28" width="114.71" height="44.6" rx="4.65"/><path class="cls-4" d="M333.34,345.74a1.41,1.41,0,0,0-1.35-.69c-.63,0-1,.29-1,.75s.44.78,1.36,1c1.43.36,2.08.9,2.08,2.11s-.76,2-2.37,2a3,3,0,0,1-2.66-1.13l1.07-.74a1.72,1.72,0,0,0,1.5.69c.79,0,1.06-.35,1.06-.77s-.29-.74-1.4-1c-1.36-.36-2-1-2-2.15s.72-1.93,2.36-1.93a2.67,2.67,0,0,1,2.41,1.13Z"/><path class="cls-4" d="M339.78,344v1.19h-2.89v1.54h2.59v1.18h-2.59v1.79h2.89v1.18h-4.29V344Z"/><path class="cls-4" d="M345.33,344v1.19h-1.89v5.69H342v-5.69h-1.89V344Z"/><path class="cls-4" d="M349.67,345.74a1.42,1.42,0,0,0-1.36-.69c-.63,0-1,.29-1,.75s.44.78,1.36,1c1.43.36,2.08.9,2.08,2.11s-.75,2-2.37,2a3,3,0,0,1-2.65-1.13l1.07-.74a1.69,1.69,0,0,0,1.49.69c.8,0,1.07-.35,1.07-.77s-.29-.74-1.41-1c-1.35-.36-2-1-2-2.15s.72-1.93,2.35-1.93a2.66,2.66,0,0,1,2.41,1.13Z"/><path class="cls-4" d="M355.59,347.22h-1.36v-1.37h1.36Zm0,3.62h-1.36v-1.36h1.36Z"/><path class="cls-4" d="M363.58,348.73a2.32,2.32,0,0,1-4.63,0v-2.67a2.32,2.32,0,0,1,4.63,0Zm-2.31-3.68c-.63,0-.93.39-.93,1.13v2.43c0,.74.3,1.14.93,1.14s.91-.4.91-1.14v-2.43C362.18,345.44,361.88,345.05,361.27,345.05Z"/><path class="cls-4" d="M374.69,349.66h2.89v1.18H373.3V344h1.39Z"/><path class="cls-4" d="M382.61,344v1.19h-2.89v1.54h2.59v1.18h-2.59v1.79h2.89v1.18h-4.29V344Z"/><path class="cls-4" d="M388.53,347.26v.63c0,2.1-1,3-2.54,3s-2.63-.94-2.63-3V347c0-2.22,1.09-3.14,2.63-3.14a2.37,2.37,0,0,1,2.53,2.22h-1.34a1.13,1.13,0,0,0-1.19-1c-.8,0-1.23.54-1.23,1.86v1c0,1.31.43,1.86,1.23,1.86s1.11-.49,1.19-1.31H386v-1.18Z"/><path class="cls-4" d="M393.25,345.74a1.42,1.42,0,0,0-1.36-.69c-.62,0-1,.29-1,.75s.44.78,1.35,1c1.44.36,2.09.9,2.09,2.11s-.76,2-2.38,2a3,3,0,0,1-2.65-1.13l1.07-.74a1.72,1.72,0,0,0,1.49.69c.8,0,1.07-.35,1.07-.77s-.29-.74-1.4-1c-1.36-.36-2-1-2-2.15s.72-1.93,2.35-1.93A2.68,2.68,0,0,1,394.3,345Z"/><path class="cls-4" d="M399.17,347.22h-1.36v-1.37h1.36Zm0,3.62h-1.36v-1.36h1.36Z"/><path class="cls-4" d="M407.16,348.73a2.31,2.31,0,0,1-4.62,0v-2.67a2.31,2.31,0,0,1,4.62,0Zm-2.31-3.68c-.63,0-.93.39-.93,1.13v2.43c0,.74.3,1.14.93,1.14s.92-.4.92-1.14v-2.43C405.77,345.44,405.47,345.05,404.85,345.05Z"/><path class="cls-4" d="M378.28,365.09a2.31,2.31,0,0,1-4.62,0v-2.67a2.31,2.31,0,0,1,4.62,0ZM376,361.4c-.63,0-.93.4-.93,1.14V365c0,.74.3,1.14.93,1.14s.91-.4.91-1.14v-2.43C376.88,361.8,376.59,361.4,376,361.4Z"/><path class="cls-4" d="M380.81,367.2h-1.55v-1.56h1.55Z"/><path class="cls-4" d="M386.41,365.09a2.31,2.31,0,0,1-4.62,0v-2.67a2.31,2.31,0,0,1,4.62,0Zm-2.31-3.69c-.63,0-.93.4-.93,1.14V365c0,.74.3,1.14.93,1.14s.92-.4.92-1.14v-2.43C385,361.8,384.72,361.4,384.1,361.4Z"/><path class="cls-4" d="M391.79,365.09a2.31,2.31,0,0,1-4.62,0v-2.67a2.31,2.31,0,0,1,4.62,0Zm-2.31-3.69c-.63,0-.93.4-.93,1.14V365c0,.74.3,1.14.93,1.14s.92-.4.92-1.14v-2.43C390.4,361.8,390.1,361.4,389.48,361.4Z"/><path class="cls-4" d="M397.88,362.29a1.5,1.5,0,1,1-3,0v-.59a1.5,1.5,0,0,1,3,0Zm3.09-2-3.84,6.88H395.9l3.85-6.88Zm-4.11,2v-.56c0-.46-.16-.63-.48-.63s-.46.18-.46.63v.56c0,.43.13.63.46.63S396.86,362.72,396.86,362.29Zm5.17,3.5a1.5,1.5,0,1,1-3,0v-.59a1.5,1.5,0,0,1,3,0Zm-1,0v-.56c0-.46-.16-.63-.48-.63s-.45.18-.45.63v.56c0,.43.13.63.45.63S401,366.22,401,365.79Z"/><path class="cls-4" d="M339.19,365.09a2.31,2.31,0,0,1-4.62,0v-2.67a2.31,2.31,0,0,1,4.62,0Zm-2.31-3.69c-.63,0-.93.4-.93,1.14V365c0,.74.3,1.14.93,1.14s.92-.4.92-1.14v-2.43C337.8,361.8,337.5,361.4,336.88,361.4Z"/><path class="cls-4" d="M341.72,367.2h-1.55v-1.56h1.55Z"/><path class="cls-4" d="M347.33,365.09a2.32,2.32,0,0,1-4.63,0v-2.67a2.32,2.32,0,0,1,4.63,0ZM345,361.4c-.63,0-.92.4-.92,1.14V365c0,.74.29,1.14.92,1.14s.92-.4.92-1.14v-2.43C345.93,361.8,345.63,361.4,345,361.4Z"/><path class="cls-4" d="M352.71,365.09a2.32,2.32,0,0,1-4.63,0v-2.67a2.32,2.32,0,0,1,4.63,0Zm-2.32-3.69c-.62,0-.92.4-.92,1.14V365c0,.74.3,1.14.92,1.14s.92-.4.92-1.14v-2.43C351.31,361.8,351,361.4,350.39,361.4Z"/></svg>